<?xml version="1.0" encoding="UTF-8" standalone="no"?>
<svg
   xmlns:dc="http://purl.org/dc/elements/1.1/"
   xmlns:cc="http://creativecommons.org/ns#"
   xmlns:rdf="http://www.w3.org/1999/02/22-rdf-syntax-ns#"
   xmlns:svg="http://www.w3.org/2000/svg"
   xmlns="http://www.w3.org/2000/svg"
   xmlns:sodipodi="http://sodipodi.sourceforge.net/DTD/sodipodi-0.dtd"
   xmlns:inkscape="http://www.inkscape.org/namespaces/inkscape"
   id="svg220"
   version="1.1"
   viewBox="-3 -3 537 358"
   sodipodi:docname="logo.svg"
   inkscape:version="0.92.2 5c3e80d, 2017-08-06">
  <sodipodi:namedview
     pagecolor="#ffffff"
     bordercolor="#666666"
     borderopacity="1"
     objecttolerance="10"
     gridtolerance="10"
     guidetolerance="10"
     inkscape:pageopacity="0"
     inkscape:pageshadow="2"
     inkscape:window-width="1850"
     inkscape:window-height="1019"
     id="namedview113"
     showgrid="false"
     inkscape:zoom="2.4506518"
     inkscape:cx="346.95508"
     inkscape:cy="150.89569"
     inkscape:window-x="1759"
     inkscape:window-y="199"
     inkscape:window-maximized="0"
     inkscape:current-layer="g218" />
  <metadata
     id="metadata224">
    <rdf:RDF>
      <cc:Work
         rdf:about="">
        <dc:format>image/svg+xml</dc:format>
        <dc:type
           rdf:resource="http://purl.org/dc/dcmitype/StillImage" />
        <dc:title>logo</dc:title>
      </cc:Work>
    </rdf:RDF>
  </metadata>
  <defs
     id="defs4">
    <style
       id="style2">
      .a, .j, .m, .n, .q {
        fill: #fff;
      }

      .a {
        stroke: #b3b3b3;
        stroke-width: 1px;
      }

      .b {
        fill: #d7d7d7;
        stroke: #e6e6e6;
        stroke-width: 5px;
      }

      .c, .o, .p, .r {
        fill: none;
      }

      .c {
        stroke: #ccc;
        stroke-width: 5px;
      }

      .d, .l {
        fill: #d0d000;
      }

      .d {
        stroke: #b2b200;
      }

      .d, .e, .h, .j, .k, .l, .m, .n, .o, .p, .r {
        stroke-linecap: round;
      }

      .d, .e, .j, .k, .r {
        stroke-linejoin: round;
      }

      .d, .k {
        stroke-width: 5px;
      }

      .e {
        fill: #5fd3bc;
        stroke: #2ca089;
        stroke-width: 5px;
      }

      .f {
        fill: #2ca089;
      }

      .g {
        fill: #a00;
        stroke: #a00;
      }

      .g, .h {
        stroke-width: 3px;
      }

      .h {
        fill: #d40000;
        stroke: #ffd5d5;
      }

      .i {
        fill: #5fbcd3;
      }

      .j, .p {
        stroke: #aef;
      }

      .j {
        stroke-width: 5px;
      }

      .k {
        fill: #ff0;
      }

      .k, .l {
        stroke: #d0d000;
      }

      .l, .m, .n {
        stroke-linejoin: bevel;
      }

      .l {
        stroke-width: 5px;
      }

      .m, .n {
        stroke: #d4aa00;
      }

      .m {
        stroke-width: 5px;
      }

      .n {
        stroke-width: 5px;
      }

      .o {
        stroke: #5fbcd3;
      }

      .o, .p {
        stroke-width: 5px;
      }

      .r {
        stroke: #d5ffe6;
        stroke-width: 5px;
      }
    </style>
  </defs>
  <title
     id="title6">logo</title>
  <g
     id="g218">
    <path
       id="path8"
       transform="translate(-56.61245 -226.73273)"
       d="M93.70331,295.21079,140.50946,526.4349H460.5411L479.91622,430.721l27.431-135.51021Z"
       class="a" />
    <path
       id="path10"
       transform="translate(-56.61245 -226.73273)"
       d="M93.70312,295.21142l4.74463,23.439v-23.439Zm40.39746,0V494.77594l6.40869,31.65969h31.24218V295.21142Zm73.3037,0V526.43563h37.64941V295.21142Zm73.30225,0V526.43563h37.65086V295.21142Zm73.30222,0V526.43563h37.65088V295.21142Zm73.30372,0V526.43563H460.541l4.42234-21.8467V295.21142Z"
       class="b"
       style="fill:#ececec;fill-opacity:1;stroke:#f3f3f3;stroke-opacity:1" />
    <path
       id="path12"
       transform="translate(-56.61245 -226.73273)"
       d="M508.84729,295.21079,466.46338,504.58893"
       class="c" />
    <path
       id="path14"
       transform="translate(-56.61245 -226.73273)"
       d="M522.85412,232.23335l6,28.21289c-140.35007.16285-282.90935-.29239-403.30518.04259-17.47967.077-36.51417,8.82853-46.1836,22.05609s-13.11073,33.507-9.98876,50.74658c14.437,72.9044,29.2473,146.89615,41.789,209.25437l48.98-8.647S132.9049,401.53515,118.51179,328.45749c-1.24237-6.89411.32037-11.41083,2.24267-14.04055,1.92478-2.6331,3.9569-4.01876,8.54737-4.09716,122.71432-.39484,326.57393-.125,389.05222-.03657v26.77l68.91061-54.66063Z"
       class="d" />
    <path
       id="path16"
       transform="translate(-56.61245 -226.73273)"
       d="M68.60105,514.44683l458.20438-16.051-21.60336,80.17731L71.601,565.7323Z"
       class="e" />
    <g
       id="g44">
      <path
         id="path18"
         transform="translate(-56.61245 -226.73273)"
         d="M212.20891,538.79691a.47474.47474,0,0,0,.53711-.53712v-1.61133a.47474.47474,0,0,0-.53711-.5371h-7.51952a.47476.47476,0,0,1-.53712-.53712v-2.14843a.47475.47475,0,0,1,.53712-.53712h6.98242q4.29688,0,4.29688,4.29688v.53712q0,4.29687-4.29688,4.29686h-3.75976a.47475.47475,0,0,0-.53711.53712v2.14843h8.05663a.47476.47476,0,0,1,.53712.53712v2.14843a.47476.47476,0,0,1-.53712.53712H204.68939a.47476.47476,0,0,1-.53712-.53712v-4.29688q0-4.29687,4.29688-4.29686Z"
         class="f" />
      <path
         id="path20"
         transform="translate(-56.61245 -226.73273)"
         d="M228.8593,544.168v3.22265a.47475.47475,0,0,1-.53712.53712h-2.14843a.47475.47475,0,0,1-.53712-.53712V544.168h-6.98242a.47474.47474,0,0,1-.53711-.53712V533.42582a.47474.47474,0,0,1,.53711-.53712h2.14844a.48058.48058,0,0,1,.53711.53712v7.51953h4.29687v-7.51953a.47475.47475,0,0,1,.53712-.53712h2.14843a.48058.48058,0,0,1,.53712.53712v7.51953h.53712a.47475.47475,0,0,1,.5371.53712v2.14843a.47474.47474,0,0,1-.5371.53712Z"
         class="f" />
      <path
         id="path22"
         transform="translate(-56.61245 -226.73273)"
         d="M246.0468,542.01956v5.37109a.47475.47475,0,0,1-.53712.53712h-2.14843a.47476.47476,0,0,1-.53712-.53712V533.42582a.47476.47476,0,0,1,.53712-.53712h2.14843a.48059.48059,0,0,1,.53712.53712v5.37109h5.37109v-5.37109a.47474.47474,0,0,1,.53711-.53712h2.14844a.48058.48058,0,0,1,.53711.53712v13.96483a.47475.47475,0,0,1-.53711.53712H251.955a.47474.47474,0,0,1-.53711-.53712v-5.37109Z"
         class="f" />
      <path
         id="path24"
         transform="translate(-56.61245 -226.73273)"
         d="M262.53606,544.168h-2.52441v3.22265a.47474.47474,0,0,1-.53711.53712H257.3261a.47475.47475,0,0,1-.53711-.53712V533.42582a.47475.47475,0,0,1,.53711-.53712h6.98243q4.29687,0,4.29687,4.29688v2.68555q0,3.13671-2.28809,3.98535l2.8252,4.07129h-4.29688Zm2.30957-3.22266a.47474.47474,0,0,0,.53712-.5371v-3.75978a.47474.47474,0,0,0-.53712-.5371h-4.834v4.834Z"
         class="f" />
      <path
         id="path26"
         transform="translate(-56.61245 -226.73273)"
         d="M283.81633,540.21488a3.03869,3.03869,0,0,1,.93457-2.24512,3.092,3.092,0,0,1,2.25586-.92382,3.19108,3.19108,0,0,1,3.16893,3.16894,3.20931,3.20931,0,0,1-3.19042,3.19043,3.03869,3.03869,0,0,1-2.24513-.93457,3.09192,3.09192,0,0,1-.92383-2.25586Z"
         class="f" />
      <path
         id="path28"
         transform="translate(-56.61245 -226.73273)"
         d="M306.46086,544.70511h4.834a.47474.47474,0,0,0,.53712-.5371v-7.51954a.47474.47474,0,0,0-.53712-.5371h-4.834Zm8.59376-1.07422q0,4.29687-4.29687,4.29688h-6.98242a.47475.47475,0,0,1-.53712-.53712V533.42582a.47475.47475,0,0,1,.53712-.53712h6.98242q4.29686,0,4.29687,4.29688Z"
         class="f" />
      <path
         id="path30"
         transform="translate(-56.61245 -226.73273)"
         d="M320.4257,538.79691h5.90819a.47475.47475,0,0,1,.53712.5371v2.14845a.47475.47475,0,0,1-.53712.5371H320.4257V544.168a.47475.47475,0,0,0,.53712.5371h7.51952a.47474.47474,0,0,1,.53709.53712v2.14843a.47474.47474,0,0,1-.53709.53712h-6.98243q-4.29689,0-4.29687-4.29688v-6.44531q0-4.29687,4.29687-4.29688h6.98243a.47474.47474,0,0,1,.53709.53712v2.14843a.47474.47474,0,0,1-.53709.53712h-7.51952a.47475.47475,0,0,0-.53712.53711Z"
         class="f" />
      <path
         id="path32"
         transform="translate(-56.61245 -226.73273)"
         d="M331.705,547.92777a.47474.47474,0,0,1-.53711-.53712V533.42582a.47474.47474,0,0,1,.53711-.53712h2.14845a.48058.48058,0,0,1,.53712.53712v11.27929h5.3711v-1.61132a.47473.47473,0,0,1,.53709-.53711h2.14845a.48056.48056,0,0,1,.53711.53711v4.29687a.47474.47474,0,0,1-.53711.53712Z"
         class="f" />
      <path
         id="path34"
         transform="translate(-56.61245 -226.73273)"
         d="M345.66985,532.8887h2.14845a.48056.48056,0,0,1,.53709.53712v13.96483a.47474.47474,0,0,1-.53709.53712h-2.14845a.47474.47474,0,0,1-.53709-.53712V533.42582A.47474.47474,0,0,1,345.66985,532.8887Z"
         class="f" />
      <path
         id="path36"
         transform="translate(-56.61245 -226.73273)"
         d="M356.82024,544.70511l1.751-3.22265a4.182,4.182,0,0,0,.52638-1.61133v-6.44531a.47474.47474,0,0,1,.5371-.53712h2.14844a.47475.47475,0,0,1,.53712.53712v6.44531a8.24453,8.24453,0,0,1-1.07421,3.22266l-2.68554,4.834h-4.29687l-2.68554-4.834a8.24453,8.24453,0,0,1-1.07421-3.22266v-6.44531a.47476.47476,0,0,1,.53712-.53712h2.14844a.47475.47475,0,0,1,.53712.53712v6.44531a4.12243,4.12243,0,0,0,.53709,1.61133l1.74024,3.22265Z"
         class="f" />
      <path
         id="path38"
         transform="translate(-56.61245 -226.73273)"
         d="M367.69133,538.79691h5.90821a.47473.47473,0,0,1,.5371.5371v2.14845a.47473.47473,0,0,1-.5371.5371h-5.90821V544.168a.47473.47473,0,0,0,.53711.5371H375.748a.47476.47476,0,0,1,.53711.53712v2.14843a.47475.47475,0,0,1-.53711.53712h-6.98241q-4.29689,0-4.29687-4.29688v-6.44531q0-4.29687,4.29687-4.29688H375.748a.47476.47476,0,0,1,.53711.53712v2.14843a.47475.47475,0,0,1-.53711.53712h-7.51953a.47474.47474,0,0,0-.53711.53711Z"
         class="f" />
      <path
         id="path40"
         transform="translate(-56.61245 -226.73273)"
         d="M384.18059,544.168h-2.52441v3.22265a.47474.47474,0,0,1-.53711.53712h-2.14845a.47474.47474,0,0,1-.53709-.53712V533.42582a.47474.47474,0,0,1,.53709-.53712h6.98243q4.29685,0,4.29687,4.29688v2.68555q0,3.13671-2.28809,3.98535l2.82521,4.07129h-4.29687Zm2.30956-3.22266a.47473.47473,0,0,0,.53711-.5371v-3.75978a.47473.47473,0,0,0-.53711-.5371h-4.834v4.834Z"
         class="f" />
      <path
         id="path42"
         transform="translate(-56.61245 -226.73273)"
         d="M396.69523,543.06156q-4.29685-.50488-4.29687-4.26465v-5.37109a.47474.47474,0,0,1,.53712-.53712h2.14844a.47476.47476,0,0,1,.53712.53712V539.334a.47474.47474,0,0,0,.5371.53712H400.455a.47475.47475,0,0,0,.53712-.53712v-5.90819a.47474.47474,0,0,1,.53709-.53712h2.14845a.47475.47475,0,0,1,.53712.53712v5.37109q0,3.75976-4.29687,4.26465v4.32909a.47475.47475,0,0,1-.5371.53712h-2.14844a.47474.47474,0,0,1-.53709-.53712Z"
         class="f" />
    </g>
    <g
       id="g60">
      <path
         id="path46"
         transform="translate(-56.61245 -226.73273)"
         d="M181.48669,450.56977v7.67868h12.28588a1.35743,1.35743,0,0,0,1.53574-1.53575v-4.6072a1.35741,1.35741,0,0,0-1.53574-1.53573Zm0,16.89309v7.67868h13.82162a1.35741,1.35741,0,0,0,1.53573-1.53573V468.9986a1.35741,1.35741,0,0,0-1.53573-1.53574Zm21.83816-5.80508q2.7336,3.07147,2.73361,8.87655v1.53574q0,12.2859-12.28589,12.28589H173.808a1.35741,1.35741,0,0,1-1.53573-1.53573V442.89108a1.35741,1.35741,0,0,1,1.53573-1.53573h18.42883q12.2859,0,12.2859,12.28589V455.177A15.65472,15.65472,0,0,1,203.32485,461.65778Z"
         class="g" />
      <path
         id="path48"
         transform="translate(-56.61245 -226.73273)"
         d="M236.77319,442.89108a1.35741,1.35741,0,0,1,1.53573-1.53573h6.143a1.35741,1.35741,0,0,1,1.53573,1.53573v29.179q0,12.2859-12.28589,12.28589h-9.21442q-12.28589,0-12.28588-12.28589v-29.179a1.35741,1.35741,0,0,1,1.53574-1.53573h6.14293a1.35741,1.35741,0,0,1,1.53574,1.53573v30.71473a1.35742,1.35742,0,0,0,1.53574,1.53573h12.28589a1.35741,1.35741,0,0,0,1.53573-1.53573Z"
         class="g" />
      <path
         id="path50"
         transform="translate(-56.61245 -226.73273)"
         d="M268.56293,473.60581h-7.218v9.21442a1.35741,1.35741,0,0,1-1.53574,1.53573h-6.143a1.35741,1.35741,0,0,1-1.53573-1.53573V442.89108a1.35741,1.35741,0,0,1,1.53573-1.53573h19.96457q12.2859,0,12.28589,12.28589v7.67867q0,8.96871-6.54223,11.39517l8.078,11.64088H275.16659Zm6.60366-9.21442a1.35741,1.35741,0,0,0,1.53574-1.53574V452.1055a1.35741,1.35741,0,0,0-1.53574-1.53573H261.345v13.82162Z"
         class="g" />
      <path
         id="path52"
         transform="translate(-56.61245 -226.73273)"
         d="M316.63147,482.82023A4.4246,4.4246,0,0,1,313.56,484.356h-9.21442q-12.28588,0-12.28589-12.28589V453.64124q0-12.28588,12.28589-12.28589H313.56q12.2859,0,12.28589,12.28589a1.35741,1.35741,0,0,1-1.53573,1.53574h-6.14295a1.35742,1.35742,0,0,1-1.53574-1.53574V452.1055a1.35741,1.35741,0,0,0-1.53573-1.53573H302.80985a1.35741,1.35741,0,0,0-1.53574,1.53573v21.50031a1.35741,1.35741,0,0,0,1.53574,1.53573h12.28589a1.35741,1.35741,0,0,0,1.53573-1.53573v-6.143h-7.67868a1.35741,1.35741,0,0,1-1.53573-1.53574v-6.14293a1.35741,1.35741,0,0,1,1.53573-1.53574h15.35737a1.35741,1.35741,0,0,1,1.53573,1.53574v23.036a1.35741,1.35741,0,0,1-1.53573,1.53573h-6.14295A1.37408,1.37408,0,0,1,316.63147,482.82023Z"
         class="g" />
      <path
         id="path54"
         transform="translate(-56.61245 -226.73273)"
         d="M341.20325,458.24845h16.8931a1.35742,1.35742,0,0,1,1.53574,1.53574v6.14293a1.35742,1.35742,0,0,1-1.53574,1.53574h-16.8931v6.143a1.35741,1.35741,0,0,0,1.53573,1.53573h21.50031a1.35742,1.35742,0,0,1,1.53574,1.53574v6.14295a1.35741,1.35741,0,0,1-1.53574,1.53573H344.27472q-12.28589,0-12.28589-12.28589V453.64124q0-12.28588,12.28589-12.28589h19.96457a1.35741,1.35741,0,0,1,1.53574,1.53573V449.034a1.35741,1.35741,0,0,1-1.53574,1.53574H342.739a1.35741,1.35741,0,0,0-1.53573,1.53573Z"
         class="g" />
      <path
         id="path56"
         transform="translate(-56.61245 -226.73273)"
         d="M388.35035,473.60581h-7.218v9.21442a1.35741,1.35741,0,0,1-1.53574,1.53573H373.4537a1.35741,1.35741,0,0,1-1.53573-1.53573V442.89108a1.35741,1.35741,0,0,1,1.53573-1.53573h19.96458q12.28589,0,12.28589,12.28589v7.67867q0,8.96871-6.54225,11.39517l8.078,11.64088H394.954Zm6.60366-9.21442a1.3574,1.3574,0,0,0,1.53574-1.53574V452.1055a1.35741,1.35741,0,0,0-1.53574-1.53573H381.13239v13.82162Z"
         class="g" />
      <path
         id="path58"
         transform="translate(-56.61245 -226.73273)"
         d="M433.34742,458.24845q12.28588,0,12.28589,12.28588v1.53574q0,12.2859-12.28589,12.28589H413.38285a1.35741,1.35741,0,0,1-1.53573-1.53573v-6.14295a1.35741,1.35741,0,0,1,1.53573-1.53574h21.50032a1.3574,1.3574,0,0,0,1.53572-1.53573V468.9986a1.35741,1.35741,0,0,0-1.53572-1.53574H424.133q-12.2859,0-12.28589-12.28588v-1.53574q0-12.28588,12.28589-12.28589h19.96457a1.35741,1.35741,0,0,1,1.53573,1.53573V449.034a1.35741,1.35741,0,0,1-1.53573,1.53574H422.59727a1.35741,1.35741,0,0,0-1.53573,1.53573v4.6072a1.35742,1.35742,0,0,0,1.53573,1.53575Z"
         class="g" />
    </g>
    <g
       id="g76">
      <path
         id="path62"
         transform="translate(-56.61245 -226.73273)"
         d="M178.11682,447.19993v7.67868h12.28589a1.35743,1.35743,0,0,0,1.53574-1.53575v-4.6072a1.35741,1.35741,0,0,0-1.53574-1.53573Zm0,16.89309v7.67868h13.82163a1.35741,1.35741,0,0,0,1.53573-1.53573v-4.60721a1.35741,1.35741,0,0,0-1.53573-1.53574Zm21.83817-5.80508q2.7336,3.07148,2.73361,8.87655v1.53574q0,12.2859-12.28589,12.28589H170.43813a1.3574,1.3574,0,0,1-1.53572-1.53573V439.52124a1.3574,1.3574,0,0,1,1.53572-1.53573H188.867q12.2859,0,12.2859,12.28589v1.53574A15.65488,15.65488,0,0,1,199.955,458.28794Z"
         class="h" />
      <path
         id="path64"
         transform="translate(-56.61245 -226.73273)"
         d="M233.40333,439.52124a1.35741,1.35741,0,0,1,1.53573-1.53573H241.082a1.35741,1.35741,0,0,1,1.53573,1.53573v29.179q0,12.2859-12.28589,12.28589h-9.21442q-12.28589,0-12.28589-12.28589v-29.179a1.35742,1.35742,0,0,1,1.53575-1.53573h6.14293a1.35741,1.35741,0,0,1,1.53574,1.53573V470.236a1.35742,1.35742,0,0,0,1.53574,1.53573h12.28589a1.35741,1.35741,0,0,0,1.53573-1.53573Z"
         class="h" />
      <path
         id="path66"
         transform="translate(-56.61245 -226.73273)"
         d="M265.19307,470.236h-7.218v9.21442a1.35741,1.35741,0,0,1-1.53574,1.53573h-6.14295a1.35741,1.35741,0,0,1-1.53573-1.53573V439.52124a1.35741,1.35741,0,0,1,1.53573-1.53573H270.261q12.28589,0,12.28589,12.28589v7.67867q0,8.96871-6.54224,11.39517l8.078,11.64088H271.79673Zm6.60366-9.21442a1.35741,1.35741,0,0,0,1.53574-1.53574V448.73566a1.35741,1.35741,0,0,0-1.53574-1.53573H257.97511v13.82162Z"
         class="h" />
      <path
         id="path68"
         transform="translate(-56.61245 -226.73273)"
         d="M313.26161,479.45039a4.42462,4.42462,0,0,1-3.07147,1.53573h-9.21442q-12.28589,0-12.28589-12.28589V450.2714q0-12.28589,12.28589-12.28589h9.21442q12.28589,0,12.28589,12.28589a1.35741,1.35741,0,0,1-1.53574,1.53574h-6.14294a1.35742,1.35742,0,0,1-1.53574-1.53574v-1.53574a1.35741,1.35741,0,0,0-1.53573-1.53573H299.44a1.35741,1.35741,0,0,0-1.53574,1.53573V470.236A1.35741,1.35741,0,0,0,299.44,471.7717h12.28589a1.35741,1.35741,0,0,0,1.53573-1.53573V464.093h-7.67868a1.35741,1.35741,0,0,1-1.53573-1.53574v-6.14293a1.35741,1.35741,0,0,1,1.53573-1.53574h15.35736a1.35742,1.35742,0,0,1,1.53574,1.53574v23.036a1.35741,1.35741,0,0,1-1.53574,1.53573h-6.14294A1.37408,1.37408,0,0,1,313.26161,479.45039Z"
         class="h" />
      <path
         id="path70"
         transform="translate(-56.61245 -226.73273)"
         d="M337.83339,454.87861h16.8931a1.35741,1.35741,0,0,1,1.53573,1.53574v6.14293a1.35741,1.35741,0,0,1-1.53573,1.53574h-16.8931V470.236a1.35741,1.35741,0,0,0,1.53573,1.53573h21.50031a1.35742,1.35742,0,0,1,1.53574,1.53574v6.143a1.35741,1.35741,0,0,1-1.53574,1.53573H340.90486q-12.28589,0-12.28589-12.28589V450.2714q0-12.28589,12.28589-12.28589h19.96457a1.35741,1.35741,0,0,1,1.53574,1.53573v6.143a1.35741,1.35741,0,0,1-1.53574,1.53574H339.36912a1.35741,1.35741,0,0,0-1.53573,1.53573Z"
         class="h" />
      <path
         id="path72"
         transform="translate(-56.61245 -226.73273)"
         d="M384.98049,470.236h-7.218v9.21442a1.35741,1.35741,0,0,1-1.53574,1.53573h-6.14295a1.35741,1.35741,0,0,1-1.53573-1.53573V439.52124a1.35741,1.35741,0,0,1,1.53573-1.53573h19.96458q12.28587,0,12.28588,12.28589v7.67867q0,8.96871-6.54224,11.39517l8.078,11.64088H391.58415Zm6.60366-9.21442a1.3574,1.3574,0,0,0,1.53574-1.53574V448.73566a1.35741,1.35741,0,0,0-1.53574-1.53573H377.76253v13.82162Z"
         class="h" />
      <path
         id="path74"
         transform="translate(-56.61245 -226.73273)"
         d="M429.97756,454.87861q12.28589,0,12.28589,12.28588v1.53574q0,12.2859-12.28589,12.28589H410.013a1.35741,1.35741,0,0,1-1.53573-1.53573v-6.143a1.35741,1.35741,0,0,1,1.53573-1.53574H431.5133A1.35741,1.35741,0,0,0,433.049,470.236v-4.60721a1.35741,1.35741,0,0,0-1.53573-1.53574H420.76315q-12.2859,0-12.28589-12.28588V450.2714q0-12.28589,12.28589-12.28589h19.96457a1.35741,1.35741,0,0,1,1.53573,1.53573v6.143a1.35741,1.35741,0,0,1-1.53573,1.53574H419.22741a1.35741,1.35741,0,0,0-1.53573,1.53573v4.6072a1.35742,1.35742,0,0,0,1.53573,1.53575Z"
         class="h" />
    </g>
    <path
       id="path94"
       transform="translate(-56.61245 -226.73273)"
       d="M518.34077,227.86523v23.71288c-140.35.16285-282.90931-.29239-403.30514.04259-17.47967.077-36.51417,8.82853-46.18359,22.05615s-13.11073,33.507-9.98877,50.74656c14.437,72.90436,29.2473,146.89611,41.789,209.25433l48.98-8.647S122.39159,392.667,107.99848,319.58939c-1.24237-6.89412.32037-11.41084,2.24267-14.04053,1.92478-2.63307,3.9569-4.01877,8.54737-4.09717,122.71432-.39483,337.07387-.125,399.55221-.03657v23.77l61.41063-48.66063Z"
       class="k" />
    <g
       id="g136">
      <circle
         id="circle96"
         r="8.34568"
         cy="51.02304"
         cx="58.49845"
         class="l" />
      <circle
         style="fill:#d0d000;stroke:#d0d000;stroke-width:5px;stroke-linecap:round;stroke-linejoin:bevel"
         id="circle98"
         r="8.3456802"
         cy="51.023041"
         cx="94.346184"
         class="l" />
      <circle
         style="fill:#d0d000;stroke:#d0d000;stroke-width:5px;stroke-linecap:round;stroke-linejoin:bevel"
         id="circle100"
         r="8.3456802"
         cy="51.023041"
         cx="130.19391"
         class="l" />
      <circle
         style="fill:#d0d000;stroke:#d0d000;stroke-width:5px;stroke-linecap:round;stroke-linejoin:bevel"
         id="circle102"
         r="8.3456697"
         cy="51.023041"
         cx="166.04164"
         class="l" />
      <circle
         style="fill:#d0d000;stroke:#d0d000;stroke-width:5px;stroke-linecap:round;stroke-linejoin:bevel"
         id="circle104"
         r="8.3456697"
         cy="51.023041"
         cx="201.88937"
         class="l" />
      <circle
         style="fill:#d0d000;stroke:#d0d000;stroke-width:5px;stroke-linecap:round;stroke-linejoin:bevel"
         id="circle106"
         r="8.3456697"
         cy="51.023041"
         cx="237.73711"
         class="l" />
      <circle
         style="fill:#d0d000;stroke:#d0d000;stroke-width:5px;stroke-linecap:round;stroke-linejoin:bevel"
         id="circle108"
         r="8.3456697"
         cy="51.023041"
         cx="273.58481"
         class="l" />
      <circle
         style="fill:#d0d000;stroke:#d0d000;stroke-width:5px;stroke-linecap:round;stroke-linejoin:bevel"
         id="circle110"
         r="8.3456697"
         cy="51.023041"
         cx="309.43256"
         class="l" />
      <circle
         style="fill:#d0d000;stroke:#d0d000;stroke-width:5px;stroke-linecap:round;stroke-linejoin:bevel"
         id="circle112"
         r="8.3456697"
         cy="51.023041"
         cx="345.2803"
         class="l" />
      <circle
         style="fill:#d0d000;stroke:#d0d000;stroke-width:5px;stroke-linecap:round;stroke-linejoin:bevel"
         id="circle114"
         r="8.3456697"
         cy="51.023041"
         cx="381.12802"
         class="l" />
      <circle
         style="fill:#d0d000;stroke:#d0d000;stroke-width:5px;stroke-linecap:round;stroke-linejoin:bevel"
         id="circle116"
         r="8.3456697"
         cy="51.023041"
         cx="416.97574"
         class="l" />
      <circle
         style="fill:#d0d000;stroke:#d0d000;stroke-width:5px;stroke-linecap:round;stroke-linejoin:bevel"
         id="circle118"
         r="8.3456697"
         cy="51.023041"
         cx="452.82346"
         class="l" />
      <circle
         id="circle120"
         transform="translate(-113.42426 -203.9846) rotate(-11.34927)"
         r="8.34568"
         cy="297.24494"
         cx="86.06022"
         class="l" />
      <circle
         id="circle122"
         transform="translate(-123.06833 -201.73458) rotate(-11.88973)"
         r="8.34568"
         cy="331.59521"
         cx="86.80374"
         class="l" />
      <circle
         id="circle124"
         transform="translate(-130.21162 -199.5105) rotate(-11.88974)"
         r="8.34568"
         cy="367.00655"
         cx="93.9113"
         class="l" />
      <circle
         id="circle126"
         transform="matrix(0.97855, -0.20603, 0.20603, 0.97855, -137.35481, -197.28645)"
         r="8.34568"
         cy="402.41756"
         cx="101.01879"
         class="l" />
      <circle
         id="circle128"
         transform="translate(-144.498 -195.06239) rotate(-11.88973)"
         r="8.34568"
         cy="437.8286"
         cx="108.12629"
         class="l" />
      <circle
         id="circle130"
         transform="translate(-151.64126 -192.83831) rotate(-11.88974)"
         r="8.34568"
         cy="473.23969"
         cx="115.2338"
         class="l" />
      <circle
         id="circle132"
         transform="translate(-158.78445 -190.61426) rotate(-11.88973)"
         r="8.34568"
         cy="508.65074"
         cx="122.3413"
         class="l" />
      <circle
         style="fill:#d0d000;stroke:#d0d000;stroke-width:5px;stroke-linecap:round;stroke-linejoin:bevel"
         id="circle134"
         r="8.3456697"
         cy="51.023041"
         cx="488.67117"
         class="l" />
    </g>
    <g
       id="g178">
      <circle
         id="circle138"
         r="8.34568"
         cy="48.17988"
         cx="56.15705"
         class="m" />
      <circle
         style="fill:#ffffff;stroke:#d4aa00;stroke-width:5px;stroke-linecap:round;stroke-linejoin:bevel"
         id="circle140"
         r="8.3456802"
         cy="48.179878"
         cx="92.004784"
         class="m" />
      <circle
         style="fill:#ffffff;stroke:#d4aa00;stroke-width:5px;stroke-linecap:round;stroke-linejoin:bevel"
         id="circle142"
         r="8.3456802"
         cy="48.179878"
         cx="127.85249"
         class="m" />
      <circle
         style="fill:#ffffff;stroke:#d4aa00;stroke-width:5px;stroke-linecap:round;stroke-linejoin:bevel"
         id="circle144"
         r="8.3456697"
         cy="48.179878"
         cx="163.70024"
         class="m" />
      <circle
         style="fill:#ffffff;stroke:#d4aa00;stroke-width:5px;stroke-linecap:round;stroke-linejoin:bevel"
         id="circle146"
         r="8.3456697"
         cy="48.179878"
         cx="199.54797"
         class="m" />
      <circle
         style="fill:#ffffff;stroke:#d4aa00;stroke-width:5px;stroke-linecap:round;stroke-linejoin:bevel"
         id="circle148"
         r="8.3456697"
         cy="48.179878"
         cx="235.39571"
         class="m" />
      <circle
         style="fill:#ffffff;stroke:#d4aa00;stroke-width:5px;stroke-linecap:round;stroke-linejoin:bevel"
         id="circle150"
         r="8.3456697"
         cy="48.179878"
         cx="271.24344"
         class="m" />
      <circle
         style="fill:#ffffff;stroke:#d4aa00;stroke-width:5px;stroke-linecap:round;stroke-linejoin:bevel"
         id="circle152"
         r="8.3456697"
         cy="48.179878"
         cx="307.09116"
         class="m" />
      <circle
         style="fill:#ffffff;stroke:#d4aa00;stroke-width:5px;stroke-linecap:round;stroke-linejoin:bevel"
         id="circle154"
         r="8.3456697"
         cy="48.179878"
         cx="342.93887"
         class="m" />
      <circle
         style="fill:#ffffff;stroke:#d4aa00;stroke-width:5px;stroke-linecap:round;stroke-linejoin:bevel"
         id="circle156"
         r="8.3456697"
         cy="48.179878"
         cx="378.78659"
         class="m" />
      <circle
         style="fill:#ffffff;stroke:#d4aa00;stroke-width:5px;stroke-linecap:round;stroke-linejoin:bevel"
         id="circle158"
         r="8.3456697"
         cy="48.179878"
         cx="414.63437"
         class="m" />
      <circle
         style="fill:#ffffff;stroke:#d4aa00;stroke-width:5px;stroke-linecap:round;stroke-linejoin:bevel"
         id="circle160"
         r="8.3456697"
         cy="48.179878"
         cx="450.48209"
         class="m" />
      <circle
         id="circle162"
         transform="translate(-112.91052 -204.50096) rotate(-11.34927)"
         r="8.34568"
         cy="294.40176"
         cx="83.71883"
         class="n" />
      <circle
         id="circle164"
         transform="translate(-116.65203 -205.11419) rotate(-10.78762)"
         r="8.34568"
         cy="328.75208"
         cx="84.46235"
         class="n" />
      <circle
         id="circle166"
         transform="translate(-123.15434 -203.15807) rotate(-10.78762)"
         r="8.34568"
         cy="364.16342"
         cx="91.56991"
         class="n" />
      <circle
         id="circle168"
         transform="translate(-129.65657 -201.20198) rotate(-10.78762)"
         r="8.34568"
         cy="399.57438"
         cx="98.67739"
         class="n" />
      <circle
         id="circle170"
         transform="translate(-136.15883 -199.24587) rotate(-10.78762)"
         r="8.34568"
         cy="434.98547"
         cx="105.7849"
         class="n" />
      <circle
         id="circle172"
         transform="matrix(0.98233, -0.18717, 0.18717, 0.98233, -142.66105, -197.28979)"
         r="8.34568"
         cy="470.39652"
         cx="112.8924"
         class="n" />
      <circle
         id="circle174"
         transform="translate(-149.16335 -195.33366) rotate(-10.78763)"
         r="8.34568"
         cy="505.80757"
         cx="119.9999"
         class="n" />
      <circle
         style="fill:#ffffff;stroke:#d4aa00;stroke-width:5px;stroke-linecap:round;stroke-linejoin:bevel"
         id="circle176"
         r="8.3456697"
         cy="48.179878"
         cx="486.3298"
         class="m" />
    </g>
    <path
       style="fill:none;stroke:#abdfe5;stroke-width:5px;stroke-linecap:round;stroke-opacity:1"
       id="path180"
       d="m 101.43966,156.1318 40.83512,-1.77243"
       class="o" />
    <path
       style="fill:none;stroke:#00c0f0;stroke-width:5px;stroke-linecap:round;stroke-opacity:1"
       id="path182"
       d="m 96.748752,151.83117 40.835118,-1.77243"
       class="p" />
    <path
       style="fill:none;stroke:#abdfe5;stroke-width:4.89063931px;stroke-linecap:round;stroke-opacity:1"
       id="path184"
       d="m 360.44156,154.78861 38.37159,1.34237"
       class="o" />
    <path
       style="fill:none;stroke:#00c0f0;stroke-width:4.89063931px;stroke-linecap:round;stroke-opacity:1"
       id="path186"
       d="m 356.35327,150.05956 38.37156,1.34237"
       class="p" />
    <g
       id="g214">
      <path
         id="path188"
         transform="translate(-56.61245 -226.73273)"
         d="M209.20892,535.79691a.47475.47475,0,0,0,.5371-.53712v-1.61133a.47474.47474,0,0,0-.5371-.53711h-7.51953a.47475.47475,0,0,1-.53711-.53711V530.4258a.47474.47474,0,0,1,.53711-.53711h6.98242q4.29688,0,4.29688,4.29688v.53711q0,4.29687-4.29688,4.29687h-3.75976a.47475.47475,0,0,0-.53711.53712v2.14843h8.05663a.47475.47475,0,0,1,.53712.53712v2.14843a.47476.47476,0,0,1-.53712.53712H201.68939a.47475.47475,0,0,1-.53711-.53712v-4.29688q0-4.29687,4.29688-4.29686Z"
         class="q" />
      <path
         id="path190"
         transform="translate(-56.61245 -226.73273)"
         d="M225.8593,541.168v3.22265a.47475.47475,0,0,1-.53712.53712h-2.14843a.47475.47475,0,0,1-.53712-.53712V541.168h-6.98241a.47475.47475,0,0,1-.53712-.53712V530.42582a.47475.47475,0,0,1,.53712-.53712h2.14843a.48059.48059,0,0,1,.53712.53712v7.51953h4.29686v-7.51953a.47475.47475,0,0,1,.53712-.53712h2.14843a.48057.48057,0,0,1,.53712.53712v7.51953h.53712a.47474.47474,0,0,1,.5371.53712v2.14843a.47475.47475,0,0,1-.5371.53712Z"
         class="q" />
      <path
         id="path192"
         transform="translate(-56.61245 -226.73273)"
         d="M243.0468,539.01956v5.37109a.47475.47475,0,0,1-.53711.53712h-2.14844a.47475.47475,0,0,1-.53711-.53712V530.42582a.47475.47475,0,0,1,.53711-.53712h2.14844a.48058.48058,0,0,1,.53711.53712v5.37109h5.37109v-5.37109a.47474.47474,0,0,1,.53711-.53712h2.14844a.48058.48058,0,0,1,.53711.53712v13.96483a.47475.47475,0,0,1-.53711.53712H248.955a.47475.47475,0,0,1-.53711-.53712v-5.37109Z"
         class="q" />
      <path
         id="path194"
         transform="translate(-56.61245 -226.73273)"
         d="M259.53607,541.168h-2.52442v3.22265a.47474.47474,0,0,1-.53711.53712H254.3261a.47475.47475,0,0,1-.53711-.53712V530.42582a.47475.47475,0,0,1,.53711-.53712h6.98243q4.29687,0,4.29688,4.29688v2.68555q0,3.13671-2.2881,3.98535l2.8252,4.07129h-4.29688Zm2.30956-3.22266a.47474.47474,0,0,0,.53712-.53711v-3.75977a.47474.47474,0,0,0-.53712-.5371h-4.834v4.834Z"
         class="q" />
      <path
         id="path196"
         transform="translate(-56.61245 -226.73273)"
         d="M280.81633,537.21487a3.03869,3.03869,0,0,1,.93457-2.24511,3.092,3.092,0,0,1,2.25586-.92382,3.19108,3.19108,0,0,1,3.16894,3.16893,3.20932,3.20932,0,0,1-3.19043,3.19043,3.03871,3.03871,0,0,1-2.24513-.93457,3.09194,3.09194,0,0,1-.92383-2.25586Z"
         class="q" />
      <path
         id="path198"
         transform="translate(-56.61245 -226.73273)"
         d="M303.46087,541.70511h4.834a.47474.47474,0,0,0,.53712-.5371v-7.51954a.47474.47474,0,0,0-.53712-.5371h-4.834Zm8.59375-1.07422q0,4.29687-4.29686,4.29688h-6.98243a.47475.47475,0,0,1-.53712-.53712V530.42582a.47475.47475,0,0,1,.53712-.53712h6.98243q4.29685,0,4.29686,4.29688Z"
         class="q" />
      <path
         id="path200"
         transform="translate(-56.61245 -226.73273)"
         d="M317.4257,535.79691h5.9082a.47474.47474,0,0,1,.53711.5371v2.14845a.47474.47474,0,0,1-.53711.5371h-5.9082V541.168a.47475.47475,0,0,0,.53712.5371h7.51952a.47475.47475,0,0,1,.5371.53712v2.14843a.47475.47475,0,0,1-.5371.53712h-6.98243q-4.29689,0-4.29686-4.29688v-6.44531q0-4.29687,4.29686-4.29688h6.98243a.47475.47475,0,0,1,.5371.53712v2.14843a.47475.47475,0,0,1-.5371.53712h-7.51952a.47475.47475,0,0,0-.53712.5371Z"
         class="q" />
      <path
         id="path202"
         transform="translate(-56.61245 -226.73273)"
         d="M328.705,544.92777a.47475.47475,0,0,1-.53712-.53712V530.42582a.47475.47475,0,0,1,.53712-.53712h2.14844a.48058.48058,0,0,1,.53712.53712v11.27929h5.3711v-1.61133a.47473.47473,0,0,1,.53709-.5371h2.14845a.48057.48057,0,0,1,.53712.5371v4.29688a.47475.47475,0,0,1-.53712.53712Z"
         class="q" />
      <path
         id="path204"
         transform="translate(-56.61245 -226.73273)"
         d="M342.66986,529.8887h2.14844a.48056.48056,0,0,1,.53709.53712v13.96483a.47474.47474,0,0,1-.53709.53712h-2.14844a.47475.47475,0,0,1-.5371-.53712V530.42582A.47474.47474,0,0,1,342.66986,529.8887Z"
         class="q" />
      <path
         id="path206"
         transform="translate(-56.61245 -226.73273)"
         d="M353.82024,541.70511l1.751-3.22265a4.18205,4.18205,0,0,0,.52639-1.61133v-6.44531a.47474.47474,0,0,1,.53709-.53712h2.14844a.47475.47475,0,0,1,.53712.53712v6.44531a8.24445,8.24445,0,0,1-1.07421,3.22265l-2.68554,4.834h-4.29687l-2.68553-4.834a8.24451,8.24451,0,0,1-1.07422-3.22265v-6.44531a.47476.47476,0,0,1,.53712-.53712h2.14845a.47474.47474,0,0,1,.53711.53712v6.44531a4.12232,4.12232,0,0,0,.5371,1.61133l1.74023,3.22265Z"
         class="q" />
      <path
         id="path208"
         transform="translate(-56.61245 -226.73273)"
         d="M364.69133,535.79691h5.90822a.47473.47473,0,0,1,.53709.5371v2.14845a.47473.47473,0,0,1-.53709.5371h-5.90822V541.168a.47474.47474,0,0,0,.53712.5371H372.748a.47476.47476,0,0,1,.53712.53712v2.14843a.47476.47476,0,0,1-.53712.53712h-6.98241q-4.29689,0-4.29686-4.29688v-6.44531q0-4.29687,4.29686-4.29688H372.748a.47476.47476,0,0,1,.53712.53712v2.14843a.47476.47476,0,0,1-.53712.53712h-7.51952a.47474.47474,0,0,0-.53712.5371Z"
         class="q" />
      <path
         id="path210"
         transform="translate(-56.61245 -226.73273)"
         d="M381.18059,541.168h-2.5244v3.22265a.47475.47475,0,0,1-.53712.53712h-2.14844a.47474.47474,0,0,1-.5371-.53712V530.42582a.47474.47474,0,0,1,.5371-.53712h6.98242q4.29685,0,4.29687,4.29688v2.68555q0,3.13671-2.28808,3.98535l2.8252,4.07129h-4.29687Zm2.30956-3.22266a.47474.47474,0,0,0,.53711-.53711v-3.75977a.47473.47473,0,0,0-.53711-.5371h-4.834v4.834Z"
         class="q" />
      <path
         id="path212"
         transform="translate(-56.61245 -226.73273)"
         d="M393.69523,540.06156q-4.29685-.5049-4.29686-4.26465v-5.37109a.47473.47473,0,0,1,.53711-.53712h2.14845a.47475.47475,0,0,1,.53711.53712V536.334a.47475.47475,0,0,0,.5371.53712H397.455a.47475.47475,0,0,0,.53711-.53712v-5.90819a.47474.47474,0,0,1,.5371-.53712h2.14844a.47475.47475,0,0,1,.53712.53712v5.37109q0,3.75975-4.29687,4.26465v4.32909a.47475.47475,0,0,1-.53709.53712h-2.14845a.47474.47474,0,0,1-.53709-.53712Z"
         class="q" />
    </g>
    <path
       id="path216"
       transform="translate(-56.61245 -226.73273)"
       d="M88.5,526.421l-7.40625.375,1.96875,27.46871,411.16083,11.59836,14.625-53.97336L161.46967,522.829"
       class="r" />
    <g
       id="flowRoot1077"
       style="font-style:normal;font-weight:normal;font-size:40px;line-height:125%;font-family:sans-serif;letter-spacing:0px;word-spacing:0px;fill:#a9dbe7;fill-opacity:1;stroke:#a9dbe7;stroke-width:5;stroke-linecap:butt;stroke-linejoin:miter;stroke-miterlimit:4;stroke-dasharray:none;stroke-opacity:1"
       transform="matrix(1,0,0.27092007,0.80875429,-139.36302,488.8881)"
       aria-label="212">
      <path
         id="path1085"
         style="font-style:normal;font-variant:normal;font-weight:normal;font-stretch:normal;font-size:192px;font-family:Yellowtail;-inkscape-font-specification:'Yellowtail, Normal';font-variant-ligatures:normal;font-variant-caps:normal;font-variant-numeric:normal;font-feature-settings:normal;text-align:start;writing-mode:lr-tb;text-anchor:start;fill:#a9dbe7;stroke:#a9dbe7;stroke-width:5;stroke-miterlimit:4;stroke-dasharray:none;stroke-opacity:1;fill-opacity:1"
         d="m 417.06055,-375.01886 c 16.125,-16.03125 74.0625,-66.46875 74.0625,-85.6875 0,-4.78125 -3.65625,-14.71875 -12.75,-14.71875 -29.34375,0 -64.16632,29.5625 -64.16632,39.96875 0,1.78125 0.375,2.90625 0.84375,3.28125 2.0625,1.96875 5.71875,3.375 7.21875,3.375 1.875,0 6.28125,-1.5 7.40625,-4.3125 0,-0.65625 0.0937,-1.59375 0.5625,-1.96875 16.03125,-22.21875 37.91632,-26 43.44757,-26 1.6875,0 3.09375,0.5625 3.09375,1.78125 0.0937,6.1875 -23.0625,27.5625 -39.46875,45.9375 -8.0625,9 -24.5625,21.9375 -30.84375,28.78125 -6.5625,7.21875 -11.15625,12 -11.71875,13.21875 -0.65625,1.3125 -1.78125,4.6875 -1.78125,5.71875 0.0937,2.34375 2.625,6 2.8125,6.1875 2.0625,1.03125 5.25,2.15625 6.28125,2.15625 13.03125,-1.78125 37.875,-2.15625 53.4375,-5.4375 1.78125,-0.375 2.4375,-1.875 2.4375,-3.75 v -0.84375 c -0.0937,-1.96875 -1.21875,-8.34375 -2.71875,-9.1875 -1.40625,-0.75 0.1875,-3.28125 -4.59375,-3.28125 -5.8125,0 -23.8125,2.8125 -33.5625,4.78125 z" />
      <path
         id="path1087"
         style="font-style:normal;font-variant:normal;font-weight:normal;font-stretch:normal;font-size:192px;font-family:Yellowtail;-inkscape-font-specification:'Yellowtail, Normal';font-variant-ligatures:normal;font-variant-caps:normal;font-variant-numeric:normal;font-feature-settings:normal;text-align:start;writing-mode:lr-tb;text-anchor:start;fill:#a9dbe7;stroke:#a9dbe7;stroke-width:5;stroke-miterlimit:4;stroke-dasharray:none;stroke-opacity:1;fill-opacity:1"
         d="m 509.58515,-416.80873 c 11.58236,-27.61241 23.16258,-51.31931 23.00403,-53.56234 -0.68229,-3.33313 -6.56957,-7.12887 -9.95678,-6.54341 -5.90342,1.02038 -26.5527,24.47847 -27.2682,28.32564 -0.26843,1.13621 -0.3363,1.78366 -0.3433,2.23896 0.17955,0.87713 0.7173,1.05664 1.5743,1.81669 0.8929,0.93547 1.48542,3.83003 3.03386,3.56239 0.58066,-0.10037 0.6595,-0.20476 1.24715,-0.76047 2.37562,-2.59022 4.51478,-4.86713 7.21664,-7.33211 -12.79846,25.09809 -33.81703,77.59073 -36.09712,86.52165 -0.0788,0.10439 -0.0608,0.19215 -0.0429,0.27986 0.10773,0.52629 2.01832,0.55932 2.68176,1.35282 4.10542,2.9231 5.26065,5.62957 6.3252,5.44557 2.22588,-0.38473 6.43327,-2.83748 6.39736,-3.01291 1.29831,-7.85305 11.8849,-33.47701 22.22801,-58.33234 z" />
      <path
         id="path1089"
         style="font-style:normal;font-variant:normal;font-weight:normal;font-stretch:normal;font-size:192px;font-family:Yellowtail;-inkscape-font-specification:'Yellowtail, Normal';font-variant-ligatures:normal;font-variant-caps:normal;font-variant-numeric:normal;font-feature-settings:normal;text-align:start;writing-mode:lr-tb;text-anchor:start;fill:#a9dbe7;stroke:#a9dbe7;stroke-width:5;stroke-miterlimit:4;stroke-dasharray:none;stroke-opacity:1;fill-opacity:1"
         d="m 533.31055,-375.01886 c 16.125,-16.03125 74.0625,-66.46875 74.0625,-85.6875 0,-4.78125 -3.65625,-14.71875 -12.75,-14.71875 -29.34375,0 -59.25,33.5625 -59.25,43.96875 0,1.78125 0.375,2.90625 0.84375,3.28125 2.0625,1.96875 5.71875,3.375 7.21875,3.375 1.875,0 6.28125,-1.5 7.40625,-4.3125 0,-0.65625 0.0937,-1.59375 0.5625,-1.96875 16.03125,-22.21875 33,-30 38.53125,-30 1.6875,0 3.09375,0.5625 3.09375,1.78125 0.0937,6.1875 -23.0625,27.5625 -39.46875,45.9375 -8.0625,9 -24.5625,21.9375 -30.84375,28.78125 -6.5625,7.21875 -11.15625,12 -11.71875,13.21875 -0.65625,1.3125 -1.78125,4.6875 -1.78125,5.71875 0.0937,2.34375 2.625,6 2.8125,6.1875 2.0625,1.03125 5.25,2.15625 6.28125,2.15625 13.03125,-1.78125 57.875,-2.15625 73.4375,-5.4375 1.78125,-0.375 2.4375,-1.875 2.4375,-3.75 v -0.84375 c -0.0937,-1.96875 -1.21875,-8.34375 -2.71875,-9.1875 -1.40625,-0.75 0.1875,-3.28125 -4.59375,-3.28125 -5.8125,0 -43.8125,2.8125 -53.5625,4.78125 z" />
    </g>
    <g
       id="flowRoot1077-4"
       style="font-style:normal;font-weight:normal;font-size:40px;line-height:125%;font-family:sans-serif;letter-spacing:0px;word-spacing:0px;fill:#ffffff;fill-opacity:1;stroke:#00c0f0;stroke-width:5;stroke-linecap:butt;stroke-linejoin:miter;stroke-miterlimit:4;stroke-dasharray:none;stroke-opacity:1"
       transform="matrix(1,0,0.27092007,0.80875429,-143.33389,483.69591)"
       aria-label="212">
      <path
         id="path1085-9"
         style="font-style:normal;font-variant:normal;font-weight:normal;font-stretch:normal;font-size:192px;font-family:Yellowtail;-inkscape-font-specification:'Yellowtail, Normal';font-variant-ligatures:normal;font-variant-caps:normal;font-variant-numeric:normal;font-feature-settings:normal;text-align:start;writing-mode:lr-tb;text-anchor:start;fill:#ffffff;stroke:#00c0f0;stroke-width:5;stroke-miterlimit:4;stroke-dasharray:none;stroke-opacity:1"
         d="m 415.73052,-377.4918 c 16.125,-16.03125 74.0625,-66.46875 74.0625,-85.6875 0,-4.78125 -3.65625,-14.71875 -12.75,-14.71875 -29.34375,0 -64.16632,29.5625 -64.16632,39.96875 0,1.78125 0.375,2.90625 0.84375,3.28125 2.0625,1.96875 5.71875,3.375 7.21875,3.375 1.875,0 6.28125,-1.5 7.40625,-4.3125 0,-0.65625 0.0937,-1.59375 0.5625,-1.96875 16.03125,-22.21875 37.91632,-26 43.44757,-26 1.6875,0 3.09375,0.5625 3.09375,1.78125 0.0937,6.1875 -23.0625,27.5625 -39.46875,45.9375 -8.0625,9 -24.5625,21.9375 -30.84375,28.78125 -6.5625,7.21875 -11.15625,12 -11.71875,13.21875 -0.65625,1.3125 -1.78125,4.6875 -1.78125,5.71875 0.0937,2.34375 2.625,6 2.8125,6.1875 2.0625,1.03125 5.25,2.15625 6.28125,2.15625 13.03125,-1.78125 37.875,-2.15625 53.4375,-5.4375 1.78125,-0.375 2.4375,-1.875 2.4375,-3.75 v -0.84375 c -0.0937,-1.96875 -1.21875,-8.34375 -2.71875,-9.1875 -1.40625,-0.75 0.1875,-3.28125 -4.59375,-3.28125 -5.8125,0 -23.8125,2.8125 -33.5625,4.78125 z" />
      <path
         id="path1087-8"
         style="font-style:normal;font-variant:normal;font-weight:normal;font-stretch:normal;font-size:192px;font-family:Yellowtail;-inkscape-font-specification:'Yellowtail, Normal';font-variant-ligatures:normal;font-variant-caps:normal;font-variant-numeric:normal;font-feature-settings:normal;text-align:start;writing-mode:lr-tb;text-anchor:start;fill:#ffffff;stroke:#00c0f0;stroke-width:5;stroke-miterlimit:4;stroke-dasharray:none;stroke-opacity:1"
         d="m 508.25512,-419.28167 c 11.58236,-27.61241 23.16258,-51.31931 23.00403,-53.56234 -0.68229,-3.33313 -6.56957,-7.12887 -9.95678,-6.54341 -5.90342,1.02038 -26.5527,24.47847 -27.2682,28.32564 -0.26843,1.13621 -0.3363,1.78366 -0.3433,2.23896 0.17955,0.87713 0.7173,1.05664 1.5743,1.81669 0.8929,0.93547 1.48542,3.83003 3.03386,3.56239 0.58066,-0.10037 0.6595,-0.20476 1.24715,-0.76047 2.37562,-2.59022 4.51478,-4.86713 7.21664,-7.33211 -12.79846,25.09809 -33.81703,77.59073 -36.09712,86.52165 -0.0788,0.10439 -0.0608,0.19215 -0.0429,0.27986 0.10773,0.52629 2.01832,0.55932 2.68176,1.35282 4.10542,2.9231 5.26065,5.62957 6.3252,5.44557 2.22588,-0.38473 6.43327,-2.83748 6.39736,-3.01291 1.29831,-7.85305 11.8849,-33.47701 22.22801,-58.33234 z" />
      <path
         id="path1089-1"
         style="font-style:normal;font-variant:normal;font-weight:normal;font-stretch:normal;font-size:192px;font-family:Yellowtail;-inkscape-font-specification:'Yellowtail, Normal';font-variant-ligatures:normal;font-variant-caps:normal;font-variant-numeric:normal;font-feature-settings:normal;text-align:start;writing-mode:lr-tb;text-anchor:start;fill:#ffffff;stroke:#00c0f0;stroke-width:5;stroke-miterlimit:4;stroke-dasharray:none;stroke-opacity:1"
         d="m 531.98052,-377.4918 c 16.125,-16.03125 74.0625,-66.46875 74.0625,-85.6875 0,-4.78125 -3.65625,-14.71875 -12.75,-14.71875 -29.34375,0 -59.25,33.5625 -59.25,43.96875 0,1.78125 0.375,2.90625 0.84375,3.28125 2.0625,1.96875 5.71875,3.375 7.21875,3.375 1.875,0 6.28125,-1.5 7.40625,-4.3125 0,-0.65625 0.0937,-1.59375 0.5625,-1.96875 16.03125,-22.21875 33,-30 38.53125,-30 1.6875,0 3.09375,0.5625 3.09375,1.78125 0.0937,6.1875 -23.0625,27.5625 -39.46875,45.9375 -8.0625,9 -24.5625,21.9375 -30.84375,28.78125 -6.5625,7.21875 -11.15625,12 -11.71875,13.21875 -0.65625,1.3125 -1.78125,4.6875 -1.78125,5.71875 0.0937,2.34375 2.625,6 2.8125,6.1875 2.0625,1.03125 5.25,2.15625 6.28125,2.15625 13.03125,-1.78125 57.875,-2.15625 73.4375,-5.4375 1.78125,-0.375 2.4375,-1.875 2.4375,-3.75 v -0.84375 c -0.0937,-1.96875 -1.21875,-8.34375 -2.71875,-9.1875 -1.40625,-0.75 0.1875,-3.28125 -4.59375,-3.28125 -5.8125,0 -43.8125,2.8125 -53.5625,4.78125 z" />
    </g>
  </g>
</svg>
