<?xml version="1.0" encoding="UTF-8" standalone="no"?>
<svg
   xmlns:dc="http://purl.org/dc/elements/1.1/"
   xmlns:cc="http://creativecommons.org/ns#"
   xmlns:rdf="http://www.w3.org/1999/02/22-rdf-syntax-ns#"
   xmlns:svg="http://www.w3.org/2000/svg"
   xmlns="http://www.w3.org/2000/svg"
   xmlns:sodipodi="http://sodipodi.sourceforge.net/DTD/sodipodi-0.dtd"
   xmlns:inkscape="http://www.inkscape.org/namespaces/inkscape"
   viewBox="0 0 531.78471 352.94038"
   version="1.1"
   id="svg220"
   sodipodi:docname="logo.svg"
   inkscape:version="0.92.2 5c3e80d, 2017-08-06">
  <metadata
     id="metadata224">
    <rdf:RDF>
      <cc:Work
         rdf:about="">
        <dc:format>image/svg+xml</dc:format>
        <dc:type
           rdf:resource="http://purl.org/dc/dcmitype/StillImage" />
      </cc:Work>
    </rdf:RDF>
  </metadata>
  <sodipodi:namedview
     pagecolor="#ffffff"
     bordercolor="#666666"
     borderopacity="1"
     objecttolerance="10"
     gridtolerance="10"
     guidetolerance="10"
     inkscape:pageopacity="0"
     inkscape:pageshadow="2"
     inkscape:window-width="1577"
     inkscape:window-height="1019"
     id="namedview222"
     showgrid="false"
     inkscape:zoom="0.87493348"
     inkscape:cx="622.01557"
     inkscape:cy="450.46034"
     inkscape:window-x="2189"
     inkscape:window-y="222"
     inkscape:window-maximized="0"
     inkscape:current-layer="g218" />
  <defs
     id="defs4">
    <style
       id="style2">
      .a, .j, .m, .n, .q {
        fill: #fff;
      }

      .a {
        stroke: #b3b3b3;
        stroke-width: 1px;
      }

      .b {
        fill: #d7d7d7;
        stroke: #e6e6e6;
        stroke-width: 5px;
      }

      .c, .o, .p, .r {
        fill: none;
      }

      .c {
        stroke: #ccc;
        stroke-width: 5px;
      }

      .d, .l {
        fill: #d0d000;
      }

      .d {
        stroke: #b2b200;
      }

      .d, .e, .h, .j, .k, .l, .m, .n, .o, .p, .r {
        stroke-linecap: round;
      }

      .d, .e, .j, .k, .r {
        stroke-linejoin: round;
      }

      .d, .k {
        stroke-width: 5px;
      }

      .e {
        fill: #5fd3bc;
        stroke: #2ca089;
        stroke-width: 5px;
      }

      .f {
        fill: #2ca089;
      }

      .g {
        fill: #a00;
        stroke: #a00;
      }

      .g, .h {
        stroke-width: 3px;
      }

      .h {
        fill: #d40000;
        stroke: #ffd5d5;
      }

      .i {
        fill: #5fbcd3;
      }

      .j, .p {
        stroke: #aef;
      }

      .j {
        stroke-width: 5px;
      }

      .k {
        fill: #ff0;
      }

      .k, .l {
        stroke: #d0d000;
      }

      .l, .m, .n {
        stroke-linejoin: bevel;
      }

      .l {
        stroke-width: 5px;
      }

      .m, .n {
        stroke: #d4aa00;
      }

      .m {
        stroke-width: 5px;
      }

      .n {
        stroke-width: 5px;
      }

      .o {
        stroke: #5fbcd3;
      }

      .o, .p {
        stroke-width: 5px;
      }

      .r {
        stroke: #d5ffe6;
        stroke-width: 5px;
      }
    </style>
  </defs>
  <title
     id="title6">logo</title>
  <g
     id="g218">
    <path
       class="a"
       d="M93.70331,295.21079,140.50946,526.4349H460.5411L479.91622,430.721l27.431-135.51021Z"
       transform="translate(-56.61245 -226.73273)"
       id="path8" />
    <path
       class="b"
       d="M93.70312,295.21142l4.74463,23.439v-23.439Zm40.39746,0V494.77594l6.40869,31.65969h31.24218V295.21142Zm73.3037,0V526.43563h37.64941V295.21142Zm73.30225,0V526.43563h37.65086V295.21142Zm73.30222,0V526.43563h37.65088V295.21142Zm73.30372,0V526.43563H460.541l4.42234-21.8467V295.21142Z"
       transform="translate(-56.61245 -226.73273)"
       id="path10" />
    <path
       class="c"
       d="M508.84729,295.21079,466.46338,504.58893"
       transform="translate(-56.61245 -226.73273)"
       id="path12" />
    <path
       class="d"
       d="M522.85412,232.23335l6,28.21289c-140.35007.16285-282.90935-.29239-403.30518.04259-17.47967.077-36.51417,8.82853-46.1836,22.05609s-13.11073,33.507-9.98876,50.74658c14.437,72.9044,29.2473,146.89615,41.789,209.25437l48.98-8.647S132.9049,401.53515,118.51179,328.45749c-1.24237-6.89411.32037-11.41083,2.24267-14.04055,1.92478-2.6331,3.9569-4.01876,8.54737-4.09716,122.71432-.39484,326.57393-.125,389.05222-.03657v26.77l68.91061-54.66063Z"
       transform="translate(-56.61245 -226.73273)"
       id="path14" />
    <path
       class="e"
       d="M68.60105,514.44683l458.20438-16.051-21.60336,80.17731L71.601,565.7323Z"
       transform="translate(-56.61245 -226.73273)"
       id="path16" />
    <g
       id="g44">
      <path
         class="f"
         d="M212.20891,538.79691a.47474.47474,0,0,0,.53711-.53712v-1.61133a.47474.47474,0,0,0-.53711-.5371h-7.51952a.47476.47476,0,0,1-.53712-.53712v-2.14843a.47475.47475,0,0,1,.53712-.53712h6.98242q4.29688,0,4.29688,4.29688v.53712q0,4.29687-4.29688,4.29686h-3.75976a.47475.47475,0,0,0-.53711.53712v2.14843h8.05663a.47476.47476,0,0,1,.53712.53712v2.14843a.47476.47476,0,0,1-.53712.53712H204.68939a.47476.47476,0,0,1-.53712-.53712v-4.29688q0-4.29687,4.29688-4.29686Z"
         transform="translate(-56.61245 -226.73273)"
         id="path18" />
      <path
         class="f"
         d="M228.8593,544.168v3.22265a.47475.47475,0,0,1-.53712.53712h-2.14843a.47475.47475,0,0,1-.53712-.53712V544.168h-6.98242a.47474.47474,0,0,1-.53711-.53712V533.42582a.47474.47474,0,0,1,.53711-.53712h2.14844a.48058.48058,0,0,1,.53711.53712v7.51953h4.29687v-7.51953a.47475.47475,0,0,1,.53712-.53712h2.14843a.48058.48058,0,0,1,.53712.53712v7.51953h.53712a.47475.47475,0,0,1,.5371.53712v2.14843a.47474.47474,0,0,1-.5371.53712Z"
         transform="translate(-56.61245 -226.73273)"
         id="path20" />
      <path
         class="f"
         d="M246.0468,542.01956v5.37109a.47475.47475,0,0,1-.53712.53712h-2.14843a.47476.47476,0,0,1-.53712-.53712V533.42582a.47476.47476,0,0,1,.53712-.53712h2.14843a.48059.48059,0,0,1,.53712.53712v5.37109h5.37109v-5.37109a.47474.47474,0,0,1,.53711-.53712h2.14844a.48058.48058,0,0,1,.53711.53712v13.96483a.47475.47475,0,0,1-.53711.53712H251.955a.47474.47474,0,0,1-.53711-.53712v-5.37109Z"
         transform="translate(-56.61245 -226.73273)"
         id="path22" />
      <path
         class="f"
         d="M262.53606,544.168h-2.52441v3.22265a.47474.47474,0,0,1-.53711.53712H257.3261a.47475.47475,0,0,1-.53711-.53712V533.42582a.47475.47475,0,0,1,.53711-.53712h6.98243q4.29687,0,4.29687,4.29688v2.68555q0,3.13671-2.28809,3.98535l2.8252,4.07129h-4.29688Zm2.30957-3.22266a.47474.47474,0,0,0,.53712-.5371v-3.75978a.47474.47474,0,0,0-.53712-.5371h-4.834v4.834Z"
         transform="translate(-56.61245 -226.73273)"
         id="path24" />
      <path
         class="f"
         d="M283.81633,540.21488a3.03869,3.03869,0,0,1,.93457-2.24512,3.092,3.092,0,0,1,2.25586-.92382,3.19108,3.19108,0,0,1,3.16893,3.16894,3.20931,3.20931,0,0,1-3.19042,3.19043,3.03869,3.03869,0,0,1-2.24513-.93457,3.09192,3.09192,0,0,1-.92383-2.25586Z"
         transform="translate(-56.61245 -226.73273)"
         id="path26" />
      <path
         class="f"
         d="M306.46086,544.70511h4.834a.47474.47474,0,0,0,.53712-.5371v-7.51954a.47474.47474,0,0,0-.53712-.5371h-4.834Zm8.59376-1.07422q0,4.29687-4.29687,4.29688h-6.98242a.47475.47475,0,0,1-.53712-.53712V533.42582a.47475.47475,0,0,1,.53712-.53712h6.98242q4.29686,0,4.29687,4.29688Z"
         transform="translate(-56.61245 -226.73273)"
         id="path28" />
      <path
         class="f"
         d="M320.4257,538.79691h5.90819a.47475.47475,0,0,1,.53712.5371v2.14845a.47475.47475,0,0,1-.53712.5371H320.4257V544.168a.47475.47475,0,0,0,.53712.5371h7.51952a.47474.47474,0,0,1,.53709.53712v2.14843a.47474.47474,0,0,1-.53709.53712h-6.98243q-4.29689,0-4.29687-4.29688v-6.44531q0-4.29687,4.29687-4.29688h6.98243a.47474.47474,0,0,1,.53709.53712v2.14843a.47474.47474,0,0,1-.53709.53712h-7.51952a.47475.47475,0,0,0-.53712.53711Z"
         transform="translate(-56.61245 -226.73273)"
         id="path30" />
      <path
         class="f"
         d="M331.705,547.92777a.47474.47474,0,0,1-.53711-.53712V533.42582a.47474.47474,0,0,1,.53711-.53712h2.14845a.48058.48058,0,0,1,.53712.53712v11.27929h5.3711v-1.61132a.47473.47473,0,0,1,.53709-.53711h2.14845a.48056.48056,0,0,1,.53711.53711v4.29687a.47474.47474,0,0,1-.53711.53712Z"
         transform="translate(-56.61245 -226.73273)"
         id="path32" />
      <path
         class="f"
         d="M345.66985,532.8887h2.14845a.48056.48056,0,0,1,.53709.53712v13.96483a.47474.47474,0,0,1-.53709.53712h-2.14845a.47474.47474,0,0,1-.53709-.53712V533.42582A.47474.47474,0,0,1,345.66985,532.8887Z"
         transform="translate(-56.61245 -226.73273)"
         id="path34" />
      <path
         class="f"
         d="M356.82024,544.70511l1.751-3.22265a4.182,4.182,0,0,0,.52638-1.61133v-6.44531a.47474.47474,0,0,1,.5371-.53712h2.14844a.47475.47475,0,0,1,.53712.53712v6.44531a8.24453,8.24453,0,0,1-1.07421,3.22266l-2.68554,4.834h-4.29687l-2.68554-4.834a8.24453,8.24453,0,0,1-1.07421-3.22266v-6.44531a.47476.47476,0,0,1,.53712-.53712h2.14844a.47475.47475,0,0,1,.53712.53712v6.44531a4.12243,4.12243,0,0,0,.53709,1.61133l1.74024,3.22265Z"
         transform="translate(-56.61245 -226.73273)"
         id="path36" />
      <path
         class="f"
         d="M367.69133,538.79691h5.90821a.47473.47473,0,0,1,.5371.5371v2.14845a.47473.47473,0,0,1-.5371.5371h-5.90821V544.168a.47473.47473,0,0,0,.53711.5371H375.748a.47476.47476,0,0,1,.53711.53712v2.14843a.47475.47475,0,0,1-.53711.53712h-6.98241q-4.29689,0-4.29687-4.29688v-6.44531q0-4.29687,4.29687-4.29688H375.748a.47476.47476,0,0,1,.53711.53712v2.14843a.47475.47475,0,0,1-.53711.53712h-7.51953a.47474.47474,0,0,0-.53711.53711Z"
         transform="translate(-56.61245 -226.73273)"
         id="path38" />
      <path
         class="f"
         d="M384.18059,544.168h-2.52441v3.22265a.47474.47474,0,0,1-.53711.53712h-2.14845a.47474.47474,0,0,1-.53709-.53712V533.42582a.47474.47474,0,0,1,.53709-.53712h6.98243q4.29685,0,4.29687,4.29688v2.68555q0,3.13671-2.28809,3.98535l2.82521,4.07129h-4.29687Zm2.30956-3.22266a.47473.47473,0,0,0,.53711-.5371v-3.75978a.47473.47473,0,0,0-.53711-.5371h-4.834v4.834Z"
         transform="translate(-56.61245 -226.73273)"
         id="path40" />
      <path
         class="f"
         d="M396.69523,543.06156q-4.29685-.50488-4.29687-4.26465v-5.37109a.47474.47474,0,0,1,.53712-.53712h2.14844a.47476.47476,0,0,1,.53712.53712V539.334a.47474.47474,0,0,0,.5371.53712H400.455a.47475.47475,0,0,0,.53712-.53712v-5.90819a.47474.47474,0,0,1,.53709-.53712h2.14845a.47475.47475,0,0,1,.53712.53712v5.37109q0,3.75976-4.29687,4.26465v4.32909a.47475.47475,0,0,1-.5371.53712h-2.14844a.47474.47474,0,0,1-.53709-.53712Z"
         transform="translate(-56.61245 -226.73273)"
         id="path42" />
    </g>
    <g
       id="g60">
      <path
         class="g"
         d="M181.48669,450.56977v7.67868h12.28588a1.35743,1.35743,0,0,0,1.53574-1.53575v-4.6072a1.35741,1.35741,0,0,0-1.53574-1.53573Zm0,16.89309v7.67868h13.82162a1.35741,1.35741,0,0,0,1.53573-1.53573V468.9986a1.35741,1.35741,0,0,0-1.53573-1.53574Zm21.83816-5.80508q2.7336,3.07147,2.73361,8.87655v1.53574q0,12.2859-12.28589,12.28589H173.808a1.35741,1.35741,0,0,1-1.53573-1.53573V442.89108a1.35741,1.35741,0,0,1,1.53573-1.53573h18.42883q12.2859,0,12.2859,12.28589V455.177A15.65472,15.65472,0,0,1,203.32485,461.65778Z"
         transform="translate(-56.61245 -226.73273)"
         id="path46" />
      <path
         class="g"
         d="M236.77319,442.89108a1.35741,1.35741,0,0,1,1.53573-1.53573h6.143a1.35741,1.35741,0,0,1,1.53573,1.53573v29.179q0,12.2859-12.28589,12.28589h-9.21442q-12.28589,0-12.28588-12.28589v-29.179a1.35741,1.35741,0,0,1,1.53574-1.53573h6.14293a1.35741,1.35741,0,0,1,1.53574,1.53573v30.71473a1.35742,1.35742,0,0,0,1.53574,1.53573h12.28589a1.35741,1.35741,0,0,0,1.53573-1.53573Z"
         transform="translate(-56.61245 -226.73273)"
         id="path48" />
      <path
         class="g"
         d="M268.56293,473.60581h-7.218v9.21442a1.35741,1.35741,0,0,1-1.53574,1.53573h-6.143a1.35741,1.35741,0,0,1-1.53573-1.53573V442.89108a1.35741,1.35741,0,0,1,1.53573-1.53573h19.96457q12.2859,0,12.28589,12.28589v7.67867q0,8.96871-6.54223,11.39517l8.078,11.64088H275.16659Zm6.60366-9.21442a1.35741,1.35741,0,0,0,1.53574-1.53574V452.1055a1.35741,1.35741,0,0,0-1.53574-1.53573H261.345v13.82162Z"
         transform="translate(-56.61245 -226.73273)"
         id="path50" />
      <path
         class="g"
         d="M316.63147,482.82023A4.4246,4.4246,0,0,1,313.56,484.356h-9.21442q-12.28588,0-12.28589-12.28589V453.64124q0-12.28588,12.28589-12.28589H313.56q12.2859,0,12.28589,12.28589a1.35741,1.35741,0,0,1-1.53573,1.53574h-6.14295a1.35742,1.35742,0,0,1-1.53574-1.53574V452.1055a1.35741,1.35741,0,0,0-1.53573-1.53573H302.80985a1.35741,1.35741,0,0,0-1.53574,1.53573v21.50031a1.35741,1.35741,0,0,0,1.53574,1.53573h12.28589a1.35741,1.35741,0,0,0,1.53573-1.53573v-6.143h-7.67868a1.35741,1.35741,0,0,1-1.53573-1.53574v-6.14293a1.35741,1.35741,0,0,1,1.53573-1.53574h15.35737a1.35741,1.35741,0,0,1,1.53573,1.53574v23.036a1.35741,1.35741,0,0,1-1.53573,1.53573h-6.14295A1.37408,1.37408,0,0,1,316.63147,482.82023Z"
         transform="translate(-56.61245 -226.73273)"
         id="path52" />
      <path
         class="g"
         d="M341.20325,458.24845h16.8931a1.35742,1.35742,0,0,1,1.53574,1.53574v6.14293a1.35742,1.35742,0,0,1-1.53574,1.53574h-16.8931v6.143a1.35741,1.35741,0,0,0,1.53573,1.53573h21.50031a1.35742,1.35742,0,0,1,1.53574,1.53574v6.14295a1.35741,1.35741,0,0,1-1.53574,1.53573H344.27472q-12.28589,0-12.28589-12.28589V453.64124q0-12.28588,12.28589-12.28589h19.96457a1.35741,1.35741,0,0,1,1.53574,1.53573V449.034a1.35741,1.35741,0,0,1-1.53574,1.53574H342.739a1.35741,1.35741,0,0,0-1.53573,1.53573Z"
         transform="translate(-56.61245 -226.73273)"
         id="path54" />
      <path
         class="g"
         d="M388.35035,473.60581h-7.218v9.21442a1.35741,1.35741,0,0,1-1.53574,1.53573H373.4537a1.35741,1.35741,0,0,1-1.53573-1.53573V442.89108a1.35741,1.35741,0,0,1,1.53573-1.53573h19.96458q12.28589,0,12.28589,12.28589v7.67867q0,8.96871-6.54225,11.39517l8.078,11.64088H394.954Zm6.60366-9.21442a1.3574,1.3574,0,0,0,1.53574-1.53574V452.1055a1.35741,1.35741,0,0,0-1.53574-1.53573H381.13239v13.82162Z"
         transform="translate(-56.61245 -226.73273)"
         id="path56" />
      <path
         class="g"
         d="M433.34742,458.24845q12.28588,0,12.28589,12.28588v1.53574q0,12.2859-12.28589,12.28589H413.38285a1.35741,1.35741,0,0,1-1.53573-1.53573v-6.14295a1.35741,1.35741,0,0,1,1.53573-1.53574h21.50032a1.3574,1.3574,0,0,0,1.53572-1.53573V468.9986a1.35741,1.35741,0,0,0-1.53572-1.53574H424.133q-12.2859,0-12.28589-12.28588v-1.53574q0-12.28588,12.28589-12.28589h19.96457a1.35741,1.35741,0,0,1,1.53573,1.53573V449.034a1.35741,1.35741,0,0,1-1.53573,1.53574H422.59727a1.35741,1.35741,0,0,0-1.53573,1.53573v4.6072a1.35742,1.35742,0,0,0,1.53573,1.53575Z"
         transform="translate(-56.61245 -226.73273)"
         id="path58" />
    </g>
    <g
       id="g76">
      <path
         class="h"
         d="M178.11682,447.19993v7.67868h12.28589a1.35743,1.35743,0,0,0,1.53574-1.53575v-4.6072a1.35741,1.35741,0,0,0-1.53574-1.53573Zm0,16.89309v7.67868h13.82163a1.35741,1.35741,0,0,0,1.53573-1.53573v-4.60721a1.35741,1.35741,0,0,0-1.53573-1.53574Zm21.83817-5.80508q2.7336,3.07148,2.73361,8.87655v1.53574q0,12.2859-12.28589,12.28589H170.43813a1.3574,1.3574,0,0,1-1.53572-1.53573V439.52124a1.3574,1.3574,0,0,1,1.53572-1.53573H188.867q12.2859,0,12.2859,12.28589v1.53574A15.65488,15.65488,0,0,1,199.955,458.28794Z"
         transform="translate(-56.61245 -226.73273)"
         id="path62" />
      <path
         class="h"
         d="M233.40333,439.52124a1.35741,1.35741,0,0,1,1.53573-1.53573H241.082a1.35741,1.35741,0,0,1,1.53573,1.53573v29.179q0,12.2859-12.28589,12.28589h-9.21442q-12.28589,0-12.28589-12.28589v-29.179a1.35742,1.35742,0,0,1,1.53575-1.53573h6.14293a1.35741,1.35741,0,0,1,1.53574,1.53573V470.236a1.35742,1.35742,0,0,0,1.53574,1.53573h12.28589a1.35741,1.35741,0,0,0,1.53573-1.53573Z"
         transform="translate(-56.61245 -226.73273)"
         id="path64" />
      <path
         class="h"
         d="M265.19307,470.236h-7.218v9.21442a1.35741,1.35741,0,0,1-1.53574,1.53573h-6.14295a1.35741,1.35741,0,0,1-1.53573-1.53573V439.52124a1.35741,1.35741,0,0,1,1.53573-1.53573H270.261q12.28589,0,12.28589,12.28589v7.67867q0,8.96871-6.54224,11.39517l8.078,11.64088H271.79673Zm6.60366-9.21442a1.35741,1.35741,0,0,0,1.53574-1.53574V448.73566a1.35741,1.35741,0,0,0-1.53574-1.53573H257.97511v13.82162Z"
         transform="translate(-56.61245 -226.73273)"
         id="path66" />
      <path
         class="h"
         d="M313.26161,479.45039a4.42462,4.42462,0,0,1-3.07147,1.53573h-9.21442q-12.28589,0-12.28589-12.28589V450.2714q0-12.28589,12.28589-12.28589h9.21442q12.28589,0,12.28589,12.28589a1.35741,1.35741,0,0,1-1.53574,1.53574h-6.14294a1.35742,1.35742,0,0,1-1.53574-1.53574v-1.53574a1.35741,1.35741,0,0,0-1.53573-1.53573H299.44a1.35741,1.35741,0,0,0-1.53574,1.53573V470.236A1.35741,1.35741,0,0,0,299.44,471.7717h12.28589a1.35741,1.35741,0,0,0,1.53573-1.53573V464.093h-7.67868a1.35741,1.35741,0,0,1-1.53573-1.53574v-6.14293a1.35741,1.35741,0,0,1,1.53573-1.53574h15.35736a1.35742,1.35742,0,0,1,1.53574,1.53574v23.036a1.35741,1.35741,0,0,1-1.53574,1.53573h-6.14294A1.37408,1.37408,0,0,1,313.26161,479.45039Z"
         transform="translate(-56.61245 -226.73273)"
         id="path68" />
      <path
         class="h"
         d="M337.83339,454.87861h16.8931a1.35741,1.35741,0,0,1,1.53573,1.53574v6.14293a1.35741,1.35741,0,0,1-1.53573,1.53574h-16.8931V470.236a1.35741,1.35741,0,0,0,1.53573,1.53573h21.50031a1.35742,1.35742,0,0,1,1.53574,1.53574v6.143a1.35741,1.35741,0,0,1-1.53574,1.53573H340.90486q-12.28589,0-12.28589-12.28589V450.2714q0-12.28589,12.28589-12.28589h19.96457a1.35741,1.35741,0,0,1,1.53574,1.53573v6.143a1.35741,1.35741,0,0,1-1.53574,1.53574H339.36912a1.35741,1.35741,0,0,0-1.53573,1.53573Z"
         transform="translate(-56.61245 -226.73273)"
         id="path70" />
      <path
         class="h"
         d="M384.98049,470.236h-7.218v9.21442a1.35741,1.35741,0,0,1-1.53574,1.53573h-6.14295a1.35741,1.35741,0,0,1-1.53573-1.53573V439.52124a1.35741,1.35741,0,0,1,1.53573-1.53573h19.96458q12.28587,0,12.28588,12.28589v7.67867q0,8.96871-6.54224,11.39517l8.078,11.64088H391.58415Zm6.60366-9.21442a1.3574,1.3574,0,0,0,1.53574-1.53574V448.73566a1.35741,1.35741,0,0,0-1.53574-1.53573H377.76253v13.82162Z"
         transform="translate(-56.61245 -226.73273)"
         id="path72" />
      <path
         class="h"
         d="M429.97756,454.87861q12.28589,0,12.28589,12.28588v1.53574q0,12.2859-12.28589,12.28589H410.013a1.35741,1.35741,0,0,1-1.53573-1.53573v-6.143a1.35741,1.35741,0,0,1,1.53573-1.53574H431.5133A1.35741,1.35741,0,0,0,433.049,470.236v-4.60721a1.35741,1.35741,0,0,0-1.53573-1.53574H420.76315q-12.2859,0-12.28589-12.28588V450.2714q0-12.28589,12.28589-12.28589h19.96457a1.35741,1.35741,0,0,1,1.53573,1.53573v6.143a1.35741,1.35741,0,0,1-1.53573,1.53574H419.22741a1.35741,1.35741,0,0,0-1.53573,1.53573v4.6072a1.35742,1.35742,0,0,0,1.53573,1.53575Z"
         transform="translate(-56.61245 -226.73273)"
         id="path74" />
    </g>
    <g
       id="g84">
      <path
         class="i"
         d="M274.83085,358.13663c-1.915-11.02664-11.17893-21.66862-30.99914-21.66862-29.39326,0-33.543,23.46365-31.18269,37.05462H233.5479c-1.87047-10.7702,2.59615-21.5404,11.09053-21.5404,4.85393,0,7.67927,3.8465,8.39183,7.94943,1.71459,9.87269-8.01045,20.64289-18.474,29.48984a265.00415,265.00415,0,0,1-30.01147,21.284l-4.86233,19.36072h62.5618l4.59144-18.59142H235.82447s10.16917-7.43657,10.86681-8.07765c12.397-9.35982,31.45744-26.15621,28.13959-45.26049Z"
         transform="translate(-56.61245 -226.73273)"
         id="path78" />
      <path
         class="i"
         d="M336.683,338.13482H315.7841s-11.97,23.46366-35.89792,48.72234l9.76117,8.847c6.01044-6.539,11.57184-13.33454,16.683-19.61716l-13.54677,53.97923h20.89886Z"
         transform="translate(-56.61245 -226.73273)"
         id="path80" />
      <path
         class="i"
         d="M410.45234,358.13663c-1.915-11.02664-11.17892-21.66862-30.99916-21.66862-29.39326,0-33.543,23.46365-31.18267,37.05462h20.89886c-1.87046-10.7702,2.59614-21.5404,11.09054-21.5404,4.85394,0,7.67926,3.8465,8.39182,7.94943,1.71459,9.87269-8.01045,20.64289-18.474,29.48984a265.00415,265.00415,0,0,1-30.01147,21.284l-4.86234,19.36072h62.56178l4.59145-18.59142H371.44593s10.16917-7.43657,10.86681-8.07765C394.7097,394.0373,413.77018,377.24091,410.45234,358.13663Z"
         transform="translate(-56.61245 -226.73273)"
         id="path82" />
    </g>
    <g
       id="g92">
      <path
         class="j"
         d="M267.35567,350.73459c-1.915-11.02664-11.17893-21.66862-30.99914-21.66862-29.39326,0-33.543,23.46365-31.18269,37.05462h20.89888c-1.87047-10.7702,2.59615-21.5404,11.09054-21.5404,4.85392,0,7.67926,3.8465,8.39182,7.94943,1.71459,9.87269-8.01045,20.64289-18.474,29.48984a265.00451,265.00451,0,0,1-30.01146,21.284l-4.86234,19.36072h62.5618l4.59145-18.59142H228.34929s10.16917-7.43657,10.86681-8.07765c12.39695-9.35982,31.45744-26.15621,28.13959-45.26049Z"
         transform="translate(-56.61245 -226.73273)"
         id="path86" />
      <path
         class="j"
         d="M329.20779,330.73278H308.30893s-11.97,23.46366-35.89793,48.72235l9.76117,8.84695c6.01044-6.539,11.57184-13.33454,16.683-19.61716l-13.54677,53.97923h20.89886Z"
         transform="translate(-56.61245 -226.73273)"
         id="path88" />
      <path
         class="j"
         d="M402.97716,350.73459C401.06216,339.708,391.79824,329.066,371.978,329.066c-29.39326,0-33.543,23.46365-31.18267,37.05462h20.89886c-1.87046-10.7702,2.59615-21.5404,11.09054-21.5404,4.85394,0,7.67927,3.8465,8.39182,7.94943,1.7146,9.87269-8.01045,20.64289-18.474,29.48984a265.00415,265.00415,0,0,1-30.01147,21.284l-4.86234,19.36072h62.56178l4.59145-18.59142H363.97075s10.16917-7.43657,10.86681-8.07765C387.23452,386.63526,406.295,369.83887,402.97716,350.73459Z"
         transform="translate(-56.61245 -226.73273)"
         id="path90" />
    </g>
    <path
       class="k"
       d="M518.34077,227.86523v23.71288c-140.35.16285-282.90931-.29239-403.30514.04259-17.47967.077-36.51417,8.82853-46.18359,22.05615s-13.11073,33.507-9.98877,50.74656c14.437,72.90436,29.2473,146.89611,41.789,209.25433l48.98-8.647S122.39159,392.667,107.99848,319.58939c-1.24237-6.89412.32037-11.41084,2.24267-14.04053,1.92478-2.63307,3.9569-4.01877,8.54737-4.09717,122.71432-.39483,337.07387-.125,399.55221-.03657v23.77l61.41063-48.66063Z"
       transform="translate(-56.61245 -226.73273)"
       id="path94" />
    <g
       id="g136">
      <circle
         class="l"
         cx="58.49845"
         cy="51.02304"
         r="8.34568"
         id="circle96" />
      <circle
         class="l"
         cx="94.346184"
         cy="51.023041"
         r="8.3456802"
         id="circle98"
         style="fill:#d0d000;stroke:#d0d000;stroke-width:5px;stroke-linecap:round;stroke-linejoin:bevel" />
      <circle
         class="l"
         cx="130.19391"
         cy="51.023041"
         r="8.3456802"
         id="circle100"
         style="fill:#d0d000;stroke:#d0d000;stroke-width:5px;stroke-linecap:round;stroke-linejoin:bevel" />
      <circle
         class="l"
         cx="166.04164"
         cy="51.023041"
         r="8.3456697"
         id="circle102"
         style="fill:#d0d000;stroke:#d0d000;stroke-width:5px;stroke-linecap:round;stroke-linejoin:bevel" />
      <circle
         class="l"
         cx="201.88937"
         cy="51.023041"
         r="8.3456697"
         id="circle104"
         style="fill:#d0d000;stroke:#d0d000;stroke-width:5px;stroke-linecap:round;stroke-linejoin:bevel" />
      <circle
         class="l"
         cx="237.73711"
         cy="51.023041"
         r="8.3456697"
         id="circle106"
         style="fill:#d0d000;stroke:#d0d000;stroke-width:5px;stroke-linecap:round;stroke-linejoin:bevel" />
      <circle
         class="l"
         cx="273.58481"
         cy="51.023041"
         r="8.3456697"
         id="circle108"
         style="fill:#d0d000;stroke:#d0d000;stroke-width:5px;stroke-linecap:round;stroke-linejoin:bevel" />
      <circle
         class="l"
         cx="309.43256"
         cy="51.023041"
         r="8.3456697"
         id="circle110"
         style="fill:#d0d000;stroke:#d0d000;stroke-width:5px;stroke-linecap:round;stroke-linejoin:bevel" />
      <circle
         class="l"
         cx="345.2803"
         cy="51.023041"
         r="8.3456697"
         id="circle112"
         style="fill:#d0d000;stroke:#d0d000;stroke-width:5px;stroke-linecap:round;stroke-linejoin:bevel" />
      <circle
         class="l"
         cx="381.12802"
         cy="51.023041"
         r="8.3456697"
         id="circle114"
         style="fill:#d0d000;stroke:#d0d000;stroke-width:5px;stroke-linecap:round;stroke-linejoin:bevel" />
      <circle
         class="l"
         cx="416.97574"
         cy="51.023041"
         r="8.3456697"
         id="circle116"
         style="fill:#d0d000;stroke:#d0d000;stroke-width:5px;stroke-linecap:round;stroke-linejoin:bevel" />
      <circle
         class="l"
         cx="452.82346"
         cy="51.023041"
         r="8.3456697"
         id="circle118"
         style="fill:#d0d000;stroke:#d0d000;stroke-width:5px;stroke-linecap:round;stroke-linejoin:bevel" />
      <circle
         class="l"
         cx="86.06022"
         cy="297.24494"
         r="8.34568"
         transform="translate(-113.42426 -203.9846) rotate(-11.34927)"
         id="circle120" />
      <circle
         class="l"
         cx="86.80374"
         cy="331.59521"
         r="8.34568"
         transform="translate(-123.06833 -201.73458) rotate(-11.88973)"
         id="circle122" />
      <circle
         class="l"
         cx="93.9113"
         cy="367.00655"
         r="8.34568"
         transform="translate(-130.21162 -199.5105) rotate(-11.88974)"
         id="circle124" />
      <circle
         class="l"
         cx="101.01879"
         cy="402.41756"
         r="8.34568"
         transform="matrix(0.97855, -0.20603, 0.20603, 0.97855, -137.35481, -197.28645)"
         id="circle126" />
      <circle
         class="l"
         cx="108.12629"
         cy="437.8286"
         r="8.34568"
         transform="translate(-144.498 -195.06239) rotate(-11.88973)"
         id="circle128" />
      <circle
         class="l"
         cx="115.2338"
         cy="473.23969"
         r="8.34568"
         transform="translate(-151.64126 -192.83831) rotate(-11.88974)"
         id="circle130" />
      <circle
         class="l"
         cx="122.3413"
         cy="508.65074"
         r="8.34568"
         transform="translate(-158.78445 -190.61426) rotate(-11.88973)"
         id="circle132" />
      <circle
         class="l"
         cx="488.67117"
         cy="51.023041"
         r="8.3456697"
         id="circle134"
         style="fill:#d0d000;stroke:#d0d000;stroke-width:5px;stroke-linecap:round;stroke-linejoin:bevel" />
    </g>
    <g
       id="g178">
      <circle
         class="m"
         cx="56.15705"
         cy="48.17988"
         r="8.34568"
         id="circle138" />
      <circle
         class="m"
         cx="92.004784"
         cy="48.179878"
         r="8.3456802"
         id="circle140"
         style="fill:#ffffff;stroke:#d4aa00;stroke-width:5px;stroke-linecap:round;stroke-linejoin:bevel" />
      <circle
         class="m"
         cx="127.85249"
         cy="48.179878"
         r="8.3456802"
         id="circle142"
         style="fill:#ffffff;stroke:#d4aa00;stroke-width:5px;stroke-linecap:round;stroke-linejoin:bevel" />
      <circle
         class="m"
         cx="163.70024"
         cy="48.179878"
         r="8.3456697"
         id="circle144"
         style="fill:#ffffff;stroke:#d4aa00;stroke-width:5px;stroke-linecap:round;stroke-linejoin:bevel" />
      <circle
         class="m"
         cx="199.54797"
         cy="48.179878"
         r="8.3456697"
         id="circle146"
         style="fill:#ffffff;stroke:#d4aa00;stroke-width:5px;stroke-linecap:round;stroke-linejoin:bevel" />
      <circle
         class="m"
         cx="235.39571"
         cy="48.179878"
         r="8.3456697"
         id="circle148"
         style="fill:#ffffff;stroke:#d4aa00;stroke-width:5px;stroke-linecap:round;stroke-linejoin:bevel" />
      <circle
         class="m"
         cx="271.24344"
         cy="48.179878"
         r="8.3456697"
         id="circle150"
         style="fill:#ffffff;stroke:#d4aa00;stroke-width:5px;stroke-linecap:round;stroke-linejoin:bevel" />
      <circle
         class="m"
         cx="307.09116"
         cy="48.179878"
         r="8.3456697"
         id="circle152"
         style="fill:#ffffff;stroke:#d4aa00;stroke-width:5px;stroke-linecap:round;stroke-linejoin:bevel" />
      <circle
         class="m"
         cx="342.93887"
         cy="48.179878"
         r="8.3456697"
         id="circle154"
         style="fill:#ffffff;stroke:#d4aa00;stroke-width:5px;stroke-linecap:round;stroke-linejoin:bevel" />
      <circle
         class="m"
         cx="378.78659"
         cy="48.179878"
         r="8.3456697"
         id="circle156"
         style="fill:#ffffff;stroke:#d4aa00;stroke-width:5px;stroke-linecap:round;stroke-linejoin:bevel" />
      <circle
         class="m"
         cx="414.63437"
         cy="48.179878"
         r="8.3456697"
         id="circle158"
         style="fill:#ffffff;stroke:#d4aa00;stroke-width:5px;stroke-linecap:round;stroke-linejoin:bevel" />
      <circle
         class="m"
         cx="450.48209"
         cy="48.179878"
         r="8.3456697"
         id="circle160"
         style="fill:#ffffff;stroke:#d4aa00;stroke-width:5px;stroke-linecap:round;stroke-linejoin:bevel" />
      <circle
         class="n"
         cx="83.71883"
         cy="294.40176"
         r="8.34568"
         transform="translate(-112.91052 -204.50096) rotate(-11.34927)"
         id="circle162" />
      <circle
         class="n"
         cx="84.46235"
         cy="328.75208"
         r="8.34568"
         transform="translate(-116.65203 -205.11419) rotate(-10.78762)"
         id="circle164" />
      <circle
         class="n"
         cx="91.56991"
         cy="364.16342"
         r="8.34568"
         transform="translate(-123.15434 -203.15807) rotate(-10.78762)"
         id="circle166" />
      <circle
         class="n"
         cx="98.67739"
         cy="399.57438"
         r="8.34568"
         transform="translate(-129.65657 -201.20198) rotate(-10.78762)"
         id="circle168" />
      <circle
         class="n"
         cx="105.7849"
         cy="434.98547"
         r="8.34568"
         transform="translate(-136.15883 -199.24587) rotate(-10.78762)"
         id="circle170" />
      <circle
         class="n"
         cx="112.8924"
         cy="470.39652"
         r="8.34568"
         transform="matrix(0.98233, -0.18717, 0.18717, 0.98233, -142.66105, -197.28979)"
         id="circle172" />
      <circle
         class="n"
         cx="119.9999"
         cy="505.80757"
         r="8.34568"
         transform="translate(-149.16335 -195.33366) rotate(-10.78763)"
         id="circle174" />
      <circle
         class="m"
         cx="486.3298"
         cy="48.179878"
         r="8.3456697"
         id="circle176"
         style="fill:#ffffff;stroke:#d4aa00;stroke-width:5px;stroke-linecap:round;stroke-linejoin:bevel" />
    </g>
    <path
       class="o"
       d="M157.93743,382.078H198.811"
       transform="translate(-56.61245 -226.73273)"
       id="path180" />
    <path
       class="p"
       d="M153.43743,377.578H194.311"
       transform="translate(-56.61245 -226.73273)"
       id="path182" />
    <path
       class="o"
       d="M417.43754,382.078h40.87363"
       transform="translate(-56.61245 -226.73273)"
       id="path184" />
    <path
       class="p"
       d="M412.93751,377.578h40.8736"
       transform="translate(-56.61245 -226.73273)"
       id="path186" />
    <g
       id="g214">
      <path
         class="q"
         d="M209.20892,535.79691a.47475.47475,0,0,0,.5371-.53712v-1.61133a.47474.47474,0,0,0-.5371-.53711h-7.51953a.47475.47475,0,0,1-.53711-.53711V530.4258a.47474.47474,0,0,1,.53711-.53711h6.98242q4.29688,0,4.29688,4.29688v.53711q0,4.29687-4.29688,4.29687h-3.75976a.47475.47475,0,0,0-.53711.53712v2.14843h8.05663a.47475.47475,0,0,1,.53712.53712v2.14843a.47476.47476,0,0,1-.53712.53712H201.68939a.47475.47475,0,0,1-.53711-.53712v-4.29688q0-4.29687,4.29688-4.29686Z"
         transform="translate(-56.61245 -226.73273)"
         id="path188" />
      <path
         class="q"
         d="M225.8593,541.168v3.22265a.47475.47475,0,0,1-.53712.53712h-2.14843a.47475.47475,0,0,1-.53712-.53712V541.168h-6.98241a.47475.47475,0,0,1-.53712-.53712V530.42582a.47475.47475,0,0,1,.53712-.53712h2.14843a.48059.48059,0,0,1,.53712.53712v7.51953h4.29686v-7.51953a.47475.47475,0,0,1,.53712-.53712h2.14843a.48057.48057,0,0,1,.53712.53712v7.51953h.53712a.47474.47474,0,0,1,.5371.53712v2.14843a.47475.47475,0,0,1-.5371.53712Z"
         transform="translate(-56.61245 -226.73273)"
         id="path190" />
      <path
         class="q"
         d="M243.0468,539.01956v5.37109a.47475.47475,0,0,1-.53711.53712h-2.14844a.47475.47475,0,0,1-.53711-.53712V530.42582a.47475.47475,0,0,1,.53711-.53712h2.14844a.48058.48058,0,0,1,.53711.53712v5.37109h5.37109v-5.37109a.47474.47474,0,0,1,.53711-.53712h2.14844a.48058.48058,0,0,1,.53711.53712v13.96483a.47475.47475,0,0,1-.53711.53712H248.955a.47475.47475,0,0,1-.53711-.53712v-5.37109Z"
         transform="translate(-56.61245 -226.73273)"
         id="path192" />
      <path
         class="q"
         d="M259.53607,541.168h-2.52442v3.22265a.47474.47474,0,0,1-.53711.53712H254.3261a.47475.47475,0,0,1-.53711-.53712V530.42582a.47475.47475,0,0,1,.53711-.53712h6.98243q4.29687,0,4.29688,4.29688v2.68555q0,3.13671-2.2881,3.98535l2.8252,4.07129h-4.29688Zm2.30956-3.22266a.47474.47474,0,0,0,.53712-.53711v-3.75977a.47474.47474,0,0,0-.53712-.5371h-4.834v4.834Z"
         transform="translate(-56.61245 -226.73273)"
         id="path194" />
      <path
         class="q"
         d="M280.81633,537.21487a3.03869,3.03869,0,0,1,.93457-2.24511,3.092,3.092,0,0,1,2.25586-.92382,3.19108,3.19108,0,0,1,3.16894,3.16893,3.20932,3.20932,0,0,1-3.19043,3.19043,3.03871,3.03871,0,0,1-2.24513-.93457,3.09194,3.09194,0,0,1-.92383-2.25586Z"
         transform="translate(-56.61245 -226.73273)"
         id="path196" />
      <path
         class="q"
         d="M303.46087,541.70511h4.834a.47474.47474,0,0,0,.53712-.5371v-7.51954a.47474.47474,0,0,0-.53712-.5371h-4.834Zm8.59375-1.07422q0,4.29687-4.29686,4.29688h-6.98243a.47475.47475,0,0,1-.53712-.53712V530.42582a.47475.47475,0,0,1,.53712-.53712h6.98243q4.29685,0,4.29686,4.29688Z"
         transform="translate(-56.61245 -226.73273)"
         id="path198" />
      <path
         class="q"
         d="M317.4257,535.79691h5.9082a.47474.47474,0,0,1,.53711.5371v2.14845a.47474.47474,0,0,1-.53711.5371h-5.9082V541.168a.47475.47475,0,0,0,.53712.5371h7.51952a.47475.47475,0,0,1,.5371.53712v2.14843a.47475.47475,0,0,1-.5371.53712h-6.98243q-4.29689,0-4.29686-4.29688v-6.44531q0-4.29687,4.29686-4.29688h6.98243a.47475.47475,0,0,1,.5371.53712v2.14843a.47475.47475,0,0,1-.5371.53712h-7.51952a.47475.47475,0,0,0-.53712.5371Z"
         transform="translate(-56.61245 -226.73273)"
         id="path200" />
      <path
         class="q"
         d="M328.705,544.92777a.47475.47475,0,0,1-.53712-.53712V530.42582a.47475.47475,0,0,1,.53712-.53712h2.14844a.48058.48058,0,0,1,.53712.53712v11.27929h5.3711v-1.61133a.47473.47473,0,0,1,.53709-.5371h2.14845a.48057.48057,0,0,1,.53712.5371v4.29688a.47475.47475,0,0,1-.53712.53712Z"
         transform="translate(-56.61245 -226.73273)"
         id="path202" />
      <path
         class="q"
         d="M342.66986,529.8887h2.14844a.48056.48056,0,0,1,.53709.53712v13.96483a.47474.47474,0,0,1-.53709.53712h-2.14844a.47475.47475,0,0,1-.5371-.53712V530.42582A.47474.47474,0,0,1,342.66986,529.8887Z"
         transform="translate(-56.61245 -226.73273)"
         id="path204" />
      <path
         class="q"
         d="M353.82024,541.70511l1.751-3.22265a4.18205,4.18205,0,0,0,.52639-1.61133v-6.44531a.47474.47474,0,0,1,.53709-.53712h2.14844a.47475.47475,0,0,1,.53712.53712v6.44531a8.24445,8.24445,0,0,1-1.07421,3.22265l-2.68554,4.834h-4.29687l-2.68553-4.834a8.24451,8.24451,0,0,1-1.07422-3.22265v-6.44531a.47476.47476,0,0,1,.53712-.53712h2.14845a.47474.47474,0,0,1,.53711.53712v6.44531a4.12232,4.12232,0,0,0,.5371,1.61133l1.74023,3.22265Z"
         transform="translate(-56.61245 -226.73273)"
         id="path206" />
      <path
         class="q"
         d="M364.69133,535.79691h5.90822a.47473.47473,0,0,1,.53709.5371v2.14845a.47473.47473,0,0,1-.53709.5371h-5.90822V541.168a.47474.47474,0,0,0,.53712.5371H372.748a.47476.47476,0,0,1,.53712.53712v2.14843a.47476.47476,0,0,1-.53712.53712h-6.98241q-4.29689,0-4.29686-4.29688v-6.44531q0-4.29687,4.29686-4.29688H372.748a.47476.47476,0,0,1,.53712.53712v2.14843a.47476.47476,0,0,1-.53712.53712h-7.51952a.47474.47474,0,0,0-.53712.5371Z"
         transform="translate(-56.61245 -226.73273)"
         id="path208" />
      <path
         class="q"
         d="M381.18059,541.168h-2.5244v3.22265a.47475.47475,0,0,1-.53712.53712h-2.14844a.47474.47474,0,0,1-.5371-.53712V530.42582a.47474.47474,0,0,1,.5371-.53712h6.98242q4.29685,0,4.29687,4.29688v2.68555q0,3.13671-2.28808,3.98535l2.8252,4.07129h-4.29687Zm2.30956-3.22266a.47474.47474,0,0,0,.53711-.53711v-3.75977a.47473.47473,0,0,0-.53711-.5371h-4.834v4.834Z"
         transform="translate(-56.61245 -226.73273)"
         id="path210" />
      <path
         class="q"
         d="M393.69523,540.06156q-4.29685-.5049-4.29686-4.26465v-5.37109a.47473.47473,0,0,1,.53711-.53712h2.14845a.47475.47475,0,0,1,.53711.53712V536.334a.47475.47475,0,0,0,.5371.53712H397.455a.47475.47475,0,0,0,.53711-.53712v-5.90819a.47474.47474,0,0,1,.5371-.53712h2.14844a.47475.47475,0,0,1,.53712.53712v5.37109q0,3.75975-4.29687,4.26465v4.32909a.47475.47475,0,0,1-.53709.53712h-2.14845a.47474.47474,0,0,1-.53709-.53712Z"
         transform="translate(-56.61245 -226.73273)"
         id="path212" />
    </g>
    <path
       class="r"
       d="M88.5,526.421l-7.40625.375,1.96875,27.46871,411.16083,11.59836,14.625-53.97336L161.46967,522.829"
       transform="translate(-56.61245 -226.73273)"
       id="path216" />
  </g>
</svg>
